<svg width="800" height="430" viewBox="0 0 800 430" fill="none" xmlns="http://www.w3.org/2000/svg">
<rect width="800" height="430" fill="#FFB366"/>
<path d="M580.238 280.961C579.284 283.559 578.332 286.152 577.269 288.695C576.398 290.777 575.425 292.817 574.48 294.863C573.734 296.496 573.022 298.145 572.23 299.75C571.039 302.16 569.738 304.516 568.449 306.871C567.777 308.097 567.144 309.351 566.449 310.562C565.062 312.968 563.566 315.308 562.078 317.652C561.359 318.785 560.683 319.942 559.941 321.058C558.456 323.292 556.863 325.46 555.281 327.636C554.433 328.8 553.628 329.999 552.753 331.148C551.203 333.179 549.558 335.136 547.925 337.109C546.925 338.319 545.964 339.566 544.933 340.75C543.273 342.66 541.519 344.492 539.781 346.34C538.699 347.488 537.659 348.676 536.55 349.801C534.512 351.863 532.375 353.84 530.238 355.813C529.371 356.614 528.543 357.457 527.66 358.243C518.438 366.45 508.363 373.817 497.516 380.184L495.519 292.922C495.359 286.922 498.718 281.399 504.078 278.758C519.116 271.399 535.757 259.961 535.519 245.399L532.957 116.282H513.575L513.278 116.278V116.282H513.117L514.481 227.641C514.481 230.438 512.32 232.758 509.598 232.758C506.88 232.758 504.637 230.438 504.637 227.641L503.68 116.282H485.574H485.519H485.359L485.519 227.641C485.519 230.438 483.359 232.758 480.637 232.758C477.918 232.758 475.68 230.438 475.68 227.641L475.918 116.68V116.442V116.282H457.598L456.637 227.641C456.637 230.438 454.399 232.758 451.68 232.758C448.957 232.758 446.801 230.438 446.801 227.641L448.141 117.778L448.16 116.442V116.282H428.238L425.757 245.399C425.437 260.758 441.917 272.121 456.956 279.161C462.398 281.802 465.839 287.399 465.757 293.482L463.437 396.2C443.598 403.238 422.238 407 400 407C379.68 407 360.078 403.801 341.68 397.961L339.278 295.559C339.117 290.04 341.84 284.681 346.637 281.961C368.399 269.559 383.68 239.879 383.68 205.079C383.68 183.457 377.746 160.345 368.082 141.852C363.64 133.294 358.421 125.692 352.531 119.77C350.949 118.176 349.317 116.719 347.656 115.372C347.598 115.325 347.547 115.266 347.488 115.219C340.301 109.43 332.394 106.04 324.078 106.04C291.199 106.04 264.48 159.079 264.48 205.079C264.48 239.88 279.757 269.559 301.518 281.961C306.319 284.68 309.038 290.039 308.878 295.559L307.46 355.165L306.726 382.798C247.886 349.984 208 287.047 208 215C208 109.16 294.078 23 400 23C505.84 23 592 109.16 592 215C592 236.848 588.32 257.848 581.57 277.426C581.156 278.617 580.676 279.782 580.238 280.961ZM327.84 143.961C321.68 146.602 315.758 151.801 310.398 159.801C307.757 163.719 305.917 167.879 304.636 172.121C303.757 175 300.159 176.121 297.839 174.121C291.999 169.16 289.358 160.68 292.636 149.641C297.038 134.438 310.878 125.079 319.757 127.641C323.999 128.84 327.679 132.922 329.999 138.602C330.879 140.68 329.84 143.078 327.84 143.961Z" fill="#FCFAF7" fill-opacity="0.2"/>
</svg>
