<?xml version="1.0" encoding="UTF-8"?>
<svg id="_レイヤー_2" data-name="レイヤー 2" xmlns="http://www.w3.org/2000/svg" viewBox="0 0 76.01 50.09">
  <defs>
    <style>
      .cls-1 {
        fill: none;
      }

      .cls-1, .cls-2, .cls-3 {
        stroke-width: 0px;
      }

      .cls-4 {
        opacity: .17;
      }

      .cls-2 {
        fill: #fff;
      }

      .cls-3 {
        fill: #ffa64d;
      }
    </style>
  </defs>
  <g id="_レイヤー_1-2" data-name="レイヤー 1">
    <rect class="cls-3" width="76.01" height="50.09"/>
    <g class="cls-4">
      <rect class="cls-1" x="15.25" y="32.22" width="45.51" height="7.22"/>
      <g>
        <path class="cls-2" d="m19.17,37.65v-1.26c0-.11-.09-.19-.19-.19h-1.1c-.11,0-.19.09-.19.19v1.26c0,.11-.09.19-.19.19h-.61c-.11,0-.19-.09-.19-.19v-3.65c0-.11.09-.19.19-.19h.61c.11,0,.19.09.19.19v1.2c0,.11.09.19.19.19h1.1c.11,0,.19-.09.19-.19v-1.2c0-.11.09-.19.19-.19h.61c.11,0,.19.09.19.19v3.65c0,.11-.09.19-.19.19h-.61c-.11,0-.19-.09-.19-.19Z"/>
        <path class="cls-2" d="m22.99,37.84h-.61c-.11,0-.19-.09-.19-.19v-3.65c0-.11.09-.19.19-.19h.61c.11,0,.19.09.19.19v3.65c0,.11-.09.19-.19.19Z"/>
        <path class="cls-2" d="m28.25,35.09c0,.27-.08.51-.23.71-.11.15-.25.27-.43.37-.1.06-.12.19-.05.28l.91,1.08c.1.12.02.31-.15.31h-.72c-.06,0-.11-.03-.15-.07l-1.05-1.33h-.18v1.21c0,.11-.09.19-.19.19h-.61c-.11,0-.19-.09-.19-.19v-3.65c0-.11.09-.19.19-.19h1.09c.25,0,.48.03.7.08.21.05.4.13.56.24.16.11.28.24.37.4.09.16.13.35.13.57Zm-.96.02c0-.18-.07-.32-.21-.4-.14-.09-.34-.13-.59-.13h-.28v1.13h.24c.27,0,.47-.05.62-.16s.22-.25.22-.44Z"/>
        <path class="cls-2" d="m32.89,33.81h.61c.11,0,.19.09.19.19v2.39c0,.48-.15.85-.45,1.12-.3.27-.72.41-1.26.41s-.96-.14-1.26-.41c-.3-.27-.45-.64-.45-1.12v-2.39c0-.11.09-.19.19-.19h.61c.11,0,.19.09.19.19v2.42c0,.23.06.41.18.53.12.12.3.18.53.18s.41-.06.53-.18.18-.3.18-.53v-2.42c0-.11.09-.19.19-.19Z"/>
        <path class="cls-2" d="m35.59,35.71v-.39c0-.11.09-.19.19-.19h1.28c.11,0,.19.09.19.19v.39c0,.11-.09.19-.19.19h-1.28c-.11,0-.19-.09-.19-.19Z"/>
        <path class="cls-2" d="m39.15,34c0-.11.09-.19.19-.19h1.04c.36,0,.68.05.98.15.3.1.55.24.76.42.21.18.37.39.49.64.12.25.18.52.18.81s-.06.56-.18.81-.28.46-.49.64c-.21.18-.46.32-.76.42-.3.1-.62.15-.98.15h-1.04c-.11,0-.19-.09-.19-.19v-3.65Zm1.29,3.05c.2,0,.39-.03.55-.08.17-.06.31-.14.43-.24s.21-.23.28-.38c.06-.15.1-.32.1-.52s-.03-.37-.1-.52-.16-.28-.28-.38c-.12-.1-.26-.19-.43-.24-.17-.06-.35-.08-.55-.08h-.3v2.46h.3Z"/>
        <path class="cls-2" d="m48.49,35.82c0,.29-.05.56-.14.81s-.23.47-.4.66c-.18.19-.39.34-.64.45-.25.11-.54.17-.87.17s-.62-.06-.87-.17c-.26-.11-.47-.26-.65-.45-.18-.19-.31-.41-.4-.66-.09-.25-.14-.52-.14-.81s.05-.56.14-.81c.09-.25.22-.47.4-.66.18-.19.39-.34.65-.45.26-.11.55-.17.87-.17s.62.06.87.17c.25.11.47.26.64.45.18.19.31.41.4.66.09.25.14.52.14.81Zm-2.06,1.3c.17,0,.33-.03.46-.1.13-.06.25-.15.34-.27.09-.12.16-.25.2-.41.04-.16.07-.33.07-.52s-.02-.36-.07-.52c-.04-.16-.11-.3-.2-.41-.09-.12-.2-.2-.34-.27-.13-.06-.29-.1-.46-.1s-.33.03-.46.1c-.13.06-.24.15-.33.27-.09.12-.16.25-.2.41-.04.16-.07.33-.07.52s.02.36.07.52.11.3.2.41c.09.12.2.2.33.27.13.06.29.1.46.1Z"/>
        <path class="cls-2" d="m50.3,37.65v-3.65c0-.11.09-.19.19-.19h.61c.11,0,.19.09.19.19v1.1c0,.19.25.26.35.1l.86-1.31c.04-.05.1-.09.16-.09h.66c.15,0,.24.17.16.3l-1.08,1.58c-.05.07-.04.15,0,.22l1.17,1.63c.09.13,0,.3-.16.3h-.72c-.06,0-.12-.03-.16-.09l-.89-1.35c-.1-.16-.35-.08-.35.1v1.14c0,.11-.09.19-.19.19h-.61c-.11,0-.19-.09-.19-.19Z"/>
        <path class="cls-2" d="m59.31,35.82c0,.29-.05.56-.14.81s-.23.47-.4.66c-.18.19-.39.34-.64.45-.25.11-.54.17-.87.17s-.62-.06-.87-.17c-.26-.11-.47-.26-.65-.45-.18-.19-.31-.41-.4-.66-.09-.25-.14-.52-.14-.81s.05-.56.14-.81c.09-.25.22-.47.4-.66.18-.19.39-.34.65-.45.26-.11.55-.17.87-.17s.62.06.87.17c.25.11.47.26.64.45.18.19.31.41.4.66.09.25.14.52.14.81Zm-2.06,1.3c.17,0,.33-.03.46-.1.13-.06.25-.15.34-.27.09-.12.16-.25.2-.41.04-.16.07-.33.07-.52s-.02-.36-.07-.52c-.04-.16-.11-.3-.2-.41-.09-.12-.2-.2-.34-.27-.13-.06-.29-.1-.46-.1s-.33.03-.46.1c-.13.06-.24.15-.33.27-.09.12-.16.25-.2.41-.04.16-.07.33-.07.52s.02.36.07.52.11.3.2.41c.09.12.2.2.33.27.13.06.29.1.46.1Z"/>
      </g>
    </g>
    <g class="cls-4">
      <g>
        <g>
          <path class="cls-2" d="m41.19,12.35c0-.48.51-.89,1.11-.89.52,0,.76.2.88.71.23,1.02.48,1.92.88,2.96.43-.22,1.51-.69,2.12-.93.62-.25.85-.31,1.14-.31.48,0,.88.49.88,1.09,0,.47-.16.64-.78.87-1.41.49-3.07,1.08-4.35,1.96-.75.49-1.05.94-1.05,1.49,0,.79.57,1.09,2.07,1.09.71,0,1.84-.07,2.45-.17.66-.11.93-.13,1.02-.13.51,0,.84.42.84,1.01,0,.53-.26.87-.78.96-.59.12-1.95.22-3.02.22s-1.79-.06-2.39-.2c-1.36-.31-2.14-1.29-2.14-2.66,0-1.27.76-2.42,2.2-3.29.06-.04.08-.05.12-.07-.25-.54-1.19-3.04-1.19-3.7Zm7.24-.02c.36.44.57.81.57,1.02,0,.31-.34.6-.69.6-.19,0-.31-.07-.52-.37-.23-.32-.43-.6-.6-.82-.14-.17-.18-.25-.18-.38,0-.3.34-.61.67-.61.24,0,.35.08.75.57Zm1.43-.77c.38.48.55.78.55.99,0,.32-.34.61-.71.61-.19,0-.29-.07-.49-.37-.13-.2-.32-.47-.61-.82-.12-.17-.17-.25-.17-.38,0-.31.34-.61.67-.61.24,0,.4.11.76.59Z"/>
          <path class="cls-2" d="m51.85,18c0,.19-.01.25-.19.7-.04.1-.06.2-.06.32,0,.58.87.88,2.57.88,1.12,0,2.04-.1,2.87-.31.37-.1.47-.12.64-.12.52,0,.85.42.85.97,0,.62-.29.89-.77,1.03-.83.25-2.26.3-3.34.3-1.84,0-2.96-.2-3.78-.7-.64-.38-1.05-1.13-1.05-1.91,0-.42.08-.87.25-1.26.2-.51.47-.71.93-.71.6,0,1.07.36,1.07.81Zm-.71-5.52c.57-.08,2.14-.18,3.27-.18.62,0,1.45.02,2.01.06.81.05,1.02.1,1.18.3.13.16.2.41.2.66,0,.62-.3.97-.84.97-.08,0-.24-.01-.41-.02-.73-.05-1.29-.07-1.9-.07-1.13,0-2.09.05-2.87.13-.25.04-.48.05-.65.05-.48,0-.77-.36-.77-.96,0-.54.26-.85.78-.94Z"/>
        </g>
        <g>
          <path class="cls-2" d="m28.56,23.75h2.37c.41,0,.41-.07.41-.78h-3.17c0,.71,0,.78.39.78Z"/>
          <path class="cls-2" d="m30.93,20.66h-2.37c-.39,0-.39.07-.39.76h3.17c0-.69,0-.76-.41-.76Z"/>
          <path class="cls-2" d="m29.92,10.48c-5.97,0-10.81,4.84-10.81,10.81s4.84,10.81,10.81,10.81,10.81-4.84,10.81-10.81-4.84-10.81-10.81-10.81Zm6.06,9.23c-.1.13-.13.31-.1.47l1.25,5.17c.08.44-.22.86-.66.94-.44.08-.86-.22-.94-.66l-.6-5.29c-.02-.17-.11-.32-.25-.41-.31-.2-.55-.56-.63-1.01-.2-1.12.13-2.11.73-2.22.6-.11,1.24.72,1.44,1.84.08.44-.02.87-.24,1.16Zm-12.33-5.51c0-.51.41-.92.92-.92h10.37c.51,0,.92.41.92.92v2.51c-.29-.3-.63-.48-.98-.48-.06,0-.13,0-.19.02-.69.12-1.14.88-1.17,1.89h-7.18l.17-.99c.04-.2,0-.4-.13-.57-.12-.17-.29-.28-.49-.31-.04,0-.09-.01-.13-.01-.12,0-.24.03-.34.08-.11-.11-.25-.2-.42-.23-.04,0-.09-.01-.13-.01-.12,0-.24.03-.34.08-.11-.11-.25-.2-.42-.23-.04,0-.09-.01-.13-.01-.12,0-.24.03-.34.08v-1.83Zm9.94,6.11v3.8c0,1.25-.32,1.57-1.58,1.57h-4.49c-1.27,0-1.58-.32-1.58-1.57v-3.8c0-1.25.32-1.57,1.58-1.57h4.49c1.27,0,1.58.32,1.58,1.57Zm-11.03,5.05l1.17-4.97c.04-.19,0-.4-.13-.55-.23-.26-.34-.62-.28-.99h0s.39-2.2.39-2.2c.03-.15.17-.26.33-.23s.26.17.23.33l-.35,1.98c-.02.09.05.18.14.2s.18-.05.2-.14l.35-1.98c.03-.15.17-.26.33-.23.15.03.26.17.23.33l-.35,1.98c-.02.09.05.18.14.2s.18-.05.2-.14l.35-1.98c.03-.15.17-.26.33-.23.15.03.26.17.23.33l-.39,2.2c-.06.37-.29.66-.6.83-.17.09-.28.27-.31.47l-.6,5.07c-.08.44-.5.74-.94.66-.44-.08-.74-.5-.66-.94Zm15.79,1.83l-4.33.8v.43h-8.22v-.43l-4.33-.8c-.18-.03-.31-.19-.31-.37,0-.21.17-.38.38-.38h16.74c.21,0,.38.17.38.38,0,.18-.13.34-.31.37Z"/>
          <rect class="cls-2" x="25.66" y="15.28" width="8.2" height=".84"/>
        </g>
        <g>
          <path class="cls-2" d="m41.57,27.54c-.11.06-.2.09-.32.09-.3,0-.57-.29-.57-.63,0-.17.08-.27.32-.45.38-.29.78-.72.99-1.06.23-.37.34-.46.57-.46.3,0,.63.27.63.53,0,.17-.17.46-.5.88v3.45c0,.29-.2.45-.57.45s-.56-.16-.56-.45v-2.34Zm1.03-2.99c-.74.66-1.06.86-1.34.86-.31,0-.56-.26-.56-.6,0-.21.07-.31.33-.47.39-.24.69-.48.9-.72.26-.31.35-.37.56-.37.34,0,.61.26.61.57,0,.2-.16.43-.5.72Zm4.17,1.94v2.81c0,.94-.61.94-1.29.94-.75,0-1.13,0-1.13-.55,0-.36.16-.59.41-.59.11,0,.37.05.59.05s.29-.08.29-.29v-2.37h-1.93c-.28,0-.44-.2-.44-.55s.15-.55.44-.55h3.6c.29,0,.44.2.44.55s-.16.55-.44.55h-.53Zm-2.67-1.97c-.26,0-.41-.19-.41-.51s.15-.52.41-.52h2.84c.27,0,.41.19.41.52s-.14.51-.41.51h-2.84Z"/>
          <path class="cls-2" d="m52.15,23.91c0,.29-.19.55-1.11,1.53-.36.38-.65.67-.86.87-.32.29-.32.3-.32.38s.04.11.35.38c.44.4.73.69,1.01.97.23.23.46.5.7.75.33.34.48.6.48.81,0,.38-.32.68-.72.68-.2,0-.34-.07-.47-.24-.66-.84-1.11-1.42-2.36-2.59-.34-.32-.44-.48-.44-.75,0-.25.08-.4.37-.66.03-.02,1.21-1.12,1.97-2.23.32-.45.41-.53.69-.53.4,0,.72.27.72.63Z"/>
        </g>
        <path class="cls-2" d="m54.88,26.09c.33-1.01.77-1.06,1.54-1.16.9-.11,1.25-.32,1.41-.84.19-.61-.09-1.07-.8-1.3s-1.15-.13-1.64.43c-.37.43-.55.5-.96.37-.64-.21-.94-.67-.77-1.21.26-.81,1.69-2.01,3.94-1.29,1.78.57,2.6,1.94,2.1,3.5-.59,1.82-2.03,1.94-2.7,2-.28.03-.32.15-.49.69-.15.47-.56.62-1.14.43s-.84-.55-.69-1.02l.19-.61Zm1.12,3.43c-.19.59-.82.92-1.42.73s-.92-.82-.73-1.42.82-.92,1.42-.73.92.82.73,1.42Z"/>
        <path class="cls-2" d="m17.5,12.22c-.09-.38-.05-.65.44-.76.4-.09.58.01.68.41.03.15.08.38.12.53.12-.06.19-.09.56-.29.12-.07.17-.08.22-.09.28-.06.55.13.62.45.09.4-.16.63-1.16,1.02.05.24.08.38.15.7.44-.2.79-.33,1.11-.4,1.45-.34,2.39.23,2.64,1.3.42,1.81-1.38,2.61-1.79,2.71-.34.08-.63-.11-.71-.48-.08-.34.02-.5.47-.72.71-.34.95-.7.83-1.21-.12-.51-.56-.69-1.27-.53-.31.07-.63.19-1.02.38.05.21.29,1.13.34,1.32.15.63.15.89.02,1.11-.14.25-.44.44-.84.53-1.07.25-2.04-.22-2.24-1.07-.18-.76.3-1.56,1.47-2.38-.07-.29-.14-.59-.22-.88-.35.1-.75.22-.93.26-.5.12-.7.02-.79-.39-.09-.39.02-.56.43-.66.37-.09.45-.1,1.03-.28l-.15-.59Zm.24,4.67c.05.23.42.38.75.31.18-.04.2-.16.1-.59-.06-.28-.13-.51-.19-.76-.5.4-.73.75-.66,1.04Zm3.59-5.16c.46.24.72.4,1.01.62.17.13.23.22.26.36.07.32-.12.65-.43.72-.16.04-.29,0-.51-.18-.26-.19-.44-.31-.81-.51-.36-.19-.45-.25-.5-.46-.06-.28.14-.61.42-.68.15-.04.29,0,.56.13Z"/>
      </g>
    </g>
  </g>
</svg>