<?xml version="1.0" encoding="UTF-8"?>
<svg id="_レイヤー_2" data-name="レイヤー 2" xmlns="http://www.w3.org/2000/svg" viewBox="0 0 17.56 17.56">
  <defs>
    <style>
      .cls-1 {
        fill: none;
      }

      .cls-1, .cls-2 {
        stroke-width: 0px;
      }

      .cls-2 {
        fill: #ffa64d;
      }
    </style>
  </defs>
  <g id="_レイヤー_1-2" data-name="レイヤー 1">
    <g>
      <rect class="cls-1" width="17.56" height="17.56"/>
      <g>
        <path class="cls-2" d="m7.75,10.64h1.79c.31,0,.31-.06.31-.59h-2.4c0,.54,0,.59.3.59Z"/>
        <path class="cls-2" d="m9.54,8.3h-1.79c-.3,0-.3.06-.3.58h2.4c0-.52,0-.58-.31-.58Z"/>
        <path class="cls-2" d="m8.78.59C4.25.59.59,4.25.59,8.78s3.67,8.19,8.19,8.19,8.19-3.67,8.19-8.19S13.3.59,8.78.59Zm4.59,6.99c-.08.1-.1.23-.07.36l.95,3.92c.06.33-.16.65-.5.71-.33.06-.65-.16-.71-.5l-.45-4c-.02-.13-.09-.24-.19-.31-.23-.15-.42-.43-.47-.76-.15-.85.1-1.6.55-1.68.45-.08.94.54,1.09,1.39.06.34-.02.66-.19.88ZM4.03,3.4c0-.39.31-.7.7-.7h7.85c.39,0,.7.31.7.7v1.9c-.22-.23-.48-.36-.75-.36-.05,0-.09,0-.14.01-.53.09-.86.67-.89,1.43h-5.44l.13-.75c.03-.15,0-.3-.1-.43-.09-.13-.22-.21-.37-.24-.03,0-.07,0-.1,0-.09,0-.18.02-.26.06-.08-.09-.19-.15-.32-.17-.03,0-.07,0-.1,0-.09,0-.18.02-.26.06-.08-.09-.19-.15-.32-.17-.03,0-.07,0-.1,0-.09,0-.18.02-.26.06v-1.38Zm7.53,4.63v2.88c0,.95-.24,1.19-1.2,1.19h-3.4c-.96,0-1.2-.24-1.2-1.19v-2.88c0-.95.24-1.19,1.2-1.19h3.4c.96,0,1.2.24,1.2,1.19Zm-8.35,3.82l.89-3.76c.03-.15,0-.3-.1-.41-.17-.2-.26-.47-.21-.75h0s.29-1.67.29-1.67c.02-.12.13-.19.25-.17s.19.13.17.25l-.26,1.5c-.01.07.03.14.1.15s.14-.03.15-.1l.26-1.5c.02-.12.13-.19.25-.17.12.02.19.13.17.25l-.26,1.5c-.01.07.03.14.1.15s.14-.03.15-.1l.26-1.5c.02-.12.13-.19.25-.17.12.02.19.13.17.25l-.29,1.67c-.05.28-.22.5-.45.63-.13.07-.21.21-.24.36l-.45,3.84c-.06.33-.38.56-.71.5-.33-.06-.56-.38-.5-.71Zm11.96,1.39l-3.28.61v.33h-6.23v-.33l-3.28-.61c-.14-.03-.24-.14-.24-.28,0-.16.13-.29.29-.29h12.68c.16,0,.29.13.29.29,0,.14-.1.26-.24.28Z"/>
        <rect class="cls-2" x="5.56" y="4.23" width="6.21" height=".64"/>
      </g>
    </g>
  </g>
</svg>