<?xml version="1.0" encoding="UTF-8"?>
<svg id="_レイヤー_2" data-name="レイヤー 2" xmlns="http://www.w3.org/2000/svg" viewBox="0 0 70.01 35.21">
  <defs>
    <style>
      .cls-1 {
        fill: none;
      }

      .cls-1, .cls-2, .cls-3 {
        stroke-width: 0px;
      }

      .cls-2 {
        fill: #665b51;
      }

      .cls-3 {
        fill: #ffa64d;
      }
    </style>
  </defs>
  <g id="_レイヤー_1-2" data-name="レイヤー 1">
    <g>
      <g>
        <g>
          <path class="cls-3" d="m39.65,4.56c0-.7.74-1.3,1.61-1.3.75,0,1.11.3,1.28,1.04.33,1.49.7,2.81,1.28,4.32.63-.32,2.21-1,3.09-1.35.91-.37,1.25-.46,1.67-.46.7,0,1.28.72,1.28,1.6,0,.68-.23.93-1.14,1.26-2.05.72-4.47,1.58-6.35,2.86-1.09.72-1.53,1.37-1.53,2.18,0,1.16.82,1.6,3.02,1.6,1.04,0,2.69-.11,3.58-.25.96-.16,1.35-.19,1.49-.19.74,0,1.23.61,1.23,1.47,0,.77-.39,1.26-1.14,1.4-.86.18-2.84.32-4.4.32s-2.61-.09-3.49-.3c-1.98-.46-3.12-1.88-3.12-3.88,0-1.86,1.11-3.53,3.21-4.81.09-.05.12-.07.18-.1-.37-.79-1.74-4.44-1.74-5.4Zm10.56-.04c.53.65.82,1.18.82,1.49,0,.46-.49.88-1,.88-.28,0-.46-.1-.75-.54-.33-.47-.63-.88-.88-1.19-.21-.25-.26-.37-.26-.56,0-.44.49-.9.98-.9.35,0,.51.12,1.09.82Zm2.09-1.12c.56.7.81,1.14.81,1.44,0,.47-.49.9-1.04.9-.28,0-.42-.11-.72-.54-.19-.3-.47-.68-.9-1.19-.18-.25-.25-.37-.25-.56,0-.46.49-.9.98-.9.35,0,.58.16,1.11.86Z"/>
          <path class="cls-3" d="m55.21,12.81c0,.28-.02.37-.28,1.02-.05.14-.09.3-.09.47,0,.84,1.26,1.28,3.76,1.28,1.63,0,2.98-.14,4.19-.46.54-.14.68-.18.93-.18.75,0,1.25.61,1.25,1.42,0,.91-.42,1.3-1.12,1.51-1.21.37-3.3.44-4.88.44-2.69,0-4.32-.3-5.51-1.02-.93-.56-1.53-1.65-1.53-2.79,0-.61.12-1.26.37-1.84.3-.74.68-1.04,1.35-1.04.88,0,1.56.53,1.56,1.18Zm-1.04-8.05c.82-.12,3.12-.26,4.77-.26.91,0,2.12.04,2.93.09,1.18.07,1.49.14,1.72.44.19.23.3.6.3.97,0,.91-.44,1.42-1.23,1.42-.12,0-.35-.02-.6-.04-1.07-.07-1.88-.11-2.77-.11-1.65,0-3.05.07-4.19.19-.37.05-.7.07-.95.07-.7,0-1.12-.53-1.12-1.4,0-.79.39-1.25,1.14-1.37Z"/>
        </g>
        <g>
          <path class="cls-3" d="m21.22,21.2h3.45c.6,0,.6-.11.6-1.14h-4.62c0,1.03,0,1.14.57,1.14Z"/>
          <path class="cls-3" d="m24.68,16.68h-3.45c-.57,0-.57.11-.57,1.12h4.62c0-1.01,0-1.12-.6-1.12Z"/>
          <path class="cls-3" d="m23.2,1.82c-8.72,0-15.78,7.07-15.78,15.78s7.07,15.78,15.78,15.78,15.78-7.07,15.78-15.78S31.91,1.82,23.2,1.82Zm8.85,13.47c-.15.2-.19.45-.14.69l1.82,7.55c.11.64-.32,1.26-.96,1.37-.64.11-1.26-.32-1.37-.96l-.87-7.72c-.04-.24-.17-.47-.37-.6-.45-.29-.8-.82-.91-1.47-.29-1.63.19-3.08,1.06-3.24.87-.15,1.82,1.05,2.1,2.68.11.65-.03,1.26-.36,1.69ZM14.06,7.25c0-.74.6-1.35,1.35-1.35h15.13c.74,0,1.35.6,1.35,1.35v3.66c-.43-.44-.92-.7-1.44-.7-.09,0-.18,0-.27.02-1.01.18-1.66,1.29-1.71,2.76h-10.47l.25-1.45c.05-.29-.01-.58-.18-.83-.17-.24-.42-.4-.71-.46-.06-.01-.13-.02-.19-.02-.18,0-.35.04-.5.12-.16-.17-.37-.29-.61-.33-.06-.01-.13-.02-.19-.02-.18,0-.35.04-.5.12-.16-.17-.37-.29-.61-.33-.06-.01-.13-.02-.19-.02-.18,0-.35.05-.5.12v-2.67Zm14.5,8.92v5.55c0,1.82-.46,2.28-2.31,2.28h-6.55c-1.85,0-2.31-.46-2.31-2.28v-5.55c0-1.82.46-2.28,2.31-2.28h6.55c1.85,0,2.31.46,2.31,2.28Zm-16.1,7.37l1.71-7.25c.06-.28,0-.58-.19-.8-.33-.38-.5-.9-.41-1.44h0s.57-3.21.57-3.21c.04-.22.25-.37.48-.33s.37.25.33.48l-.51,2.89c-.02.13.07.26.2.29s.26-.07.29-.2l.51-2.89c.04-.22.25-.37.48-.33.22.04.37.25.33.48l-.51,2.89c-.02.13.07.26.2.29s.26-.07.29-.2l.51-2.89c.04-.22.25-.37.48-.33.22.04.37.25.33.48l-.57,3.21c-.09.54-.43.97-.87,1.21-.25.14-.41.4-.45.68l-.87,7.4c-.11.64-.73,1.07-1.37.96-.64-.11-1.07-.73-.96-1.37Zm23.05,2.67l-6.32,1.17v.63h-12v-.63l-6.32-1.17c-.26-.05-.45-.28-.45-.55,0-.31.25-.55.55-.55h24.43c.31,0,.55.25.55.55,0,.27-.19.5-.45.55Z"/>
          <rect class="cls-3" x="16.99" y="8.83" width="11.96" height="1.23"/>
        </g>
        <g>
          <path class="cls-2" d="m40.21,26.73c-.15.09-.3.13-.46.13-.44,0-.82-.43-.82-.92,0-.24.11-.4.46-.66.55-.42,1.14-1.06,1.45-1.55.33-.54.5-.67.83-.67.44,0,.92.4.92.77,0,.25-.24.67-.74,1.29v5.03c0,.43-.29.66-.83.66s-.81-.23-.81-.66v-3.41Zm1.51-4.37c-1.08.96-1.55,1.25-1.96,1.25-.45,0-.81-.39-.81-.87,0-.31.1-.45.48-.68.57-.35,1.01-.7,1.31-1.06.39-.45.52-.54.81-.54.5,0,.89.37.89.84,0,.29-.23.63-.73,1.06Zm6.08,2.83v4.1c0,1.38-.89,1.38-1.88,1.38-1.09,0-1.65,0-1.65-.8,0-.53.23-.86.59-.86.17,0,.54.07.86.07s.42-.11.42-.43v-3.45h-2.82c-.41,0-.64-.29-.64-.8s.22-.8.64-.8h5.25c.42,0,.65.29.65.8s-.23.8-.65.8h-.77Zm-3.89-2.88c-.38,0-.6-.28-.6-.75s.22-.76.6-.76h4.15c.4,0,.61.27.61.76s-.21.75-.61.75h-4.15Z"/>
          <path class="cls-2" d="m55.65,21.44c0,.43-.28.8-1.62,2.23-.53.55-.95.98-1.25,1.27-.46.43-.47.44-.47.55s.06.15.51.56c.64.58,1.07,1.01,1.47,1.42.34.34.67.74,1.02,1.1.48.5.69.87.69,1.18,0,.55-.47.99-1.05.99-.3,0-.5-.1-.69-.35-.97-1.23-1.62-2.07-3.44-3.77-.49-.47-.64-.7-.64-1.1,0-.36.12-.58.54-.97.04-.03,1.76-1.63,2.88-3.26.47-.66.6-.77,1-.77.58,0,1.05.4,1.05.92Z"/>
        </g>
        <path class="cls-2" d="m59.63,24.61c.48-1.48,1.12-1.55,2.25-1.69,1.31-.16,1.82-.46,2.06-1.23.28-.88-.13-1.56-1.17-1.9s-1.68-.19-2.4.63c-.54.63-.8.74-1.39.54-.93-.3-1.37-.99-1.12-1.77.38-1.19,2.46-2.94,5.74-1.88,2.6.84,3.79,2.83,3.06,5.11-.85,2.65-2.96,2.84-3.94,2.91-.41.04-.47.22-.72,1.01-.22.68-.81.9-1.66.63s-1.22-.81-1-1.49l.28-.88Zm1.63,5.01c-.28.87-1.2,1.34-2.07,1.06s-1.34-1.2-1.06-2.07,1.2-1.34,2.07-1.06,1.34,1.2,1.06,2.07Z"/>
        <path class="cls-2" d="m5.08,4.37c-.13-.56-.07-.94.65-1.11.59-.14.85.02.99.6.05.21.12.56.17.77.17-.09.27-.13.82-.42.18-.1.25-.11.32-.13.41-.09.8.19.91.66.14.59-.24.92-1.7,1.49.07.35.12.56.23,1.02.65-.29,1.15-.48,1.61-.59,2.12-.49,3.49.33,3.85,1.9.61,2.65-2.02,3.81-2.61,3.95-.5.12-.92-.16-1.04-.7-.12-.49.03-.73.68-1.05,1.04-.5,1.39-1.02,1.22-1.77-.17-.74-.82-1.01-1.85-.77-.45.1-.92.28-1.5.56.07.31.43,1.65.49,1.93.21.92.22,1.29.04,1.62-.2.36-.64.65-1.22.78-1.56.36-2.97-.31-3.26-1.56-.26-1.11.44-2.27,2.14-3.48-.11-.43-.21-.85-.32-1.28-.51.15-1.1.32-1.36.38-.73.17-1.02.02-1.16-.57-.13-.57.02-.82.63-.96.54-.12.65-.15,1.5-.41l-.22-.86Zm.35,6.81c.08.34.62.56,1.1.45.27-.06.3-.23.15-.86-.09-.41-.18-.75-.28-1.11-.74.58-1.07,1.09-.97,1.52Zm5.23-7.53c.67.35,1.05.58,1.47.9.25.19.33.32.38.52.11.46-.18.94-.63,1.05-.24.05-.42,0-.75-.27-.38-.28-.65-.45-1.18-.74-.53-.28-.66-.37-.73-.67-.09-.41.21-.9.62-.99.23-.05.42,0,.81.2Z"/>
      </g>
      <rect class="cls-1" width="70.01" height="35.21"/>
    </g>
  </g>
</svg>