<?xml version="1.0" encoding="UTF-8"?>
<svg id="_レイヤー_2" data-name="レイヤー 2" xmlns="http://www.w3.org/2000/svg" viewBox="0 0 110.13 19.31">
  <defs>
    <style>
      .cls-1 {
        fill: none;
      }

      .cls-1, .cls-2, .cls-3 {
        stroke-width: 0px;
      }

      .cls-2 {
        fill: #664d33;
      }

      .cls-3 {
        fill: #ffa64d;
      }
    </style>
  </defs>
  <g id="_レイヤー_1-2" data-name="レイヤー 1">
    <g>
      <g>
        <rect class="cls-1" y=".75" width="17.56" height="17.56"/>
        <g>
          <path class="cls-3" d="m7.75,11.39h1.79c.31,0,.31-.06.31-.59h-2.4c0,.54,0,.59.3.59Z"/>
          <path class="cls-3" d="m9.54,9.05h-1.79c-.3,0-.3.06-.3.58h2.4c0-.52,0-.58-.31-.58Z"/>
          <path class="cls-3" d="m8.78,1.34C4.25,1.34.59,5.01.59,9.53s3.67,8.19,8.19,8.19,8.19-3.67,8.19-8.19S13.3,1.34,8.78,1.34Zm4.59,6.99c-.08.1-.1.23-.07.36l.95,3.92c.06.33-.16.65-.5.71-.33.06-.65-.16-.71-.5l-.45-4c-.02-.13-.09-.24-.19-.31-.23-.15-.42-.43-.47-.76-.15-.85.1-1.6.55-1.68.45-.08.94.54,1.09,1.39.06.34-.02.66-.19.88ZM4.03,4.15c0-.39.31-.7.7-.7h7.85c.39,0,.7.31.7.7v1.9c-.22-.23-.48-.36-.75-.36-.05,0-.09,0-.14.01-.53.09-.86.67-.89,1.43h-5.44l.13-.75c.03-.15,0-.3-.1-.43-.09-.13-.22-.21-.37-.24-.03,0-.07,0-.1,0-.09,0-.18.02-.26.06-.08-.09-.19-.15-.32-.17-.03,0-.07,0-.1,0-.09,0-.18.02-.26.06-.08-.09-.19-.15-.32-.17-.03,0-.07,0-.1,0-.09,0-.18.02-.26.06v-1.38Zm7.53,4.63v2.88c0,.95-.24,1.19-1.2,1.19h-3.4c-.96,0-1.2-.24-1.2-1.19v-2.88c0-.95.24-1.19,1.2-1.19h3.4c.96,0,1.2.24,1.2,1.19Zm-8.35,3.82l.89-3.76c.03-.15,0-.3-.1-.41-.17-.2-.26-.47-.21-.75h0s.29-1.67.29-1.67c.02-.12.13-.19.25-.17s.19.13.17.25l-.26,1.5c-.01.07.03.14.1.15s.14-.03.15-.1l.26-1.5c.02-.12.13-.19.25-.17.12.02.19.13.17.25l-.26,1.5c-.01.07.03.14.1.15s.14-.03.15-.1l.26-1.5c.02-.12.13-.19.25-.17.12.02.19.13.17.25l-.29,1.67c-.05.28-.22.5-.45.63-.13.07-.21.21-.24.36l-.45,3.84c-.06.33-.38.56-.71.5-.33-.06-.56-.38-.5-.71Zm11.96,1.39l-3.28.61v.33h-6.23v-.33l-3.28-.61c-.14-.03-.24-.14-.24-.28,0-.16.13-.29.29-.29h12.68c.16,0,.29.13.29.29,0,.14-.1.26-.24.28Z"/>
          <rect class="cls-3" x="5.56" y="4.98" width="6.21" height=".64"/>
        </g>
      </g>
      <g>
        <rect class="cls-1" x="19.91" width="90.22" height="19.31"/>
        <g>
          <path class="cls-2" d="m27.68,15.77v-2.5c0-.21-.17-.38-.38-.38h-2.17c-.21,0-.38.17-.38.38v2.5c0,.21-.17.38-.38.38h-1.21c-.21,0-.38-.17-.38-.38v-7.24c0-.21.17-.38.38-.38h1.21c.21,0,.38.17.38.38v2.38c0,.21.17.38.38.38h2.17c.21,0,.38-.17.38-.38v-2.38c0-.21.17-.38.38-.38h1.21c.21,0,.38.17.38.38v7.24c0,.21-.17.38-.38.38h-1.21c-.21,0-.38-.17-.38-.38Z"/>
          <path class="cls-2" d="m35.26,16.15h-1.21c-.21,0-.38-.17-.38-.38v-7.24c0-.21.17-.38.38-.38h1.21c.21,0,.38.17.38.38v7.24c0,.21-.17.38-.38.38Z"/>
          <path class="cls-2" d="m45.68,10.69c0,.54-.15,1-.45,1.4-.22.29-.5.53-.85.72-.2.11-.24.39-.09.56l1.8,2.15c.21.25.03.62-.29.62h-1.43c-.12,0-.22-.05-.3-.14l-2.08-2.63h-.36v2.39c0,.21-.17.38-.38.38h-1.21c-.21,0-.38-.17-.38-.38v-7.24c0-.21.17-.38.38-.38h2.17c.5,0,.96.05,1.38.16.42.1.79.26,1.1.47.31.21.56.47.73.79.18.32.26.69.26,1.12Zm-1.9.04c0-.36-.14-.63-.42-.8-.28-.17-.67-.26-1.18-.26h-.56v2.24h.48c.53,0,.94-.1,1.24-.31s.44-.5.44-.88Z"/>
          <path class="cls-2" d="m54.88,8.16h1.21c.21,0,.38.17.38.38v4.73c0,.94-.3,1.68-.89,2.22-.6.54-1.43.8-2.49.8s-1.89-.27-2.49-.8c-.6-.54-.89-1.28-.89-2.22v-4.73c0-.21.17-.38.38-.38h1.21c.21,0,.38.17.38.38v4.79c0,.46.12.8.36,1.04.24.24.59.36,1.06.36s.82-.12,1.06-.36.36-.59.36-1.04v-4.79c0-.21.17-.38.38-.38Z"/>
          <path class="cls-2" d="m60.22,11.93v-.78c0-.21.17-.38.38-.38h2.53c.21,0,.38.17.38.38v.78c0,.21-.17.38-.38.38h-2.53c-.21,0-.38-.17-.38-.38Z"/>
          <path class="cls-2" d="m67.29,8.54c0-.21.17-.38.38-.38h2.06c.7,0,1.35.1,1.94.3.59.2,1.09.48,1.51.83.42.35.74.77.97,1.27.23.49.35,1.03.35,1.6s-.12,1.11-.35,1.6-.56.91-.97,1.27c-.42.35-.92.63-1.51.83-.59.2-1.23.3-1.94.3h-2.06c-.21,0-.38-.17-.38-.38v-7.24Zm2.56,6.05c.4,0,.76-.06,1.09-.17.33-.11.61-.27.85-.48s.42-.46.55-.76c.13-.3.19-.64.19-1.03s-.06-.73-.19-1.03-.31-.55-.55-.76c-.24-.21-.52-.37-.85-.48-.33-.11-.69-.17-1.09-.17h-.59v4.87h.59Z"/>
          <path class="cls-2" d="m85.79,12.15c0,.57-.09,1.1-.28,1.6s-.45.94-.8,1.31c-.35.38-.77.67-1.28.89-.5.22-1.08.33-1.73.33s-1.23-.11-1.73-.33c-.51-.22-.94-.52-1.28-.89-.35-.38-.61-.81-.79-1.31-.18-.5-.27-1.03-.27-1.6s.09-1.1.27-1.6c.18-.5.44-.94.79-1.31.35-.38.78-.67,1.28-.89.51-.22,1.09-.33,1.73-.33s1.22.11,1.73.33c.5.22.93.52,1.28.89.35.38.61.81.8,1.31.18.5.28,1.03.28,1.6Zm-4.08,2.58c.34,0,.65-.06.91-.19.26-.13.49-.31.67-.53.18-.23.31-.5.4-.82.09-.32.13-.66.13-1.04s-.04-.72-.13-1.04c-.09-.32-.22-.59-.4-.82-.18-.23-.4-.41-.67-.53-.26-.13-.57-.19-.91-.19s-.66.06-.92.19c-.26.13-.48.31-.66.53-.18.23-.31.5-.4.82-.09.32-.13.66-.13,1.04s.04.72.13,1.04.22.59.4.82c.18.23.4.41.66.53.26.13.57.19.92.19Z"/>
          <path class="cls-2" d="m89.38,15.77v-7.24c0-.21.17-.38.38-.38h1.21c.21,0,.38.17.38.38v2.19c0,.38.49.52.69.21l1.71-2.6c.07-.11.19-.17.32-.17h1.3c.3,0,.48.34.31.59l-2.15,3.14c-.09.13-.09.3,0,.43l2.31,3.23c.18.25,0,.6-.31.6h-1.42c-.13,0-.25-.06-.32-.17l-1.76-2.68c-.21-.31-.69-.17-.69.21v2.27c0,.21-.17.38-.38.38h-1.21c-.21,0-.38-.17-.38-.38Z"/>
          <path class="cls-2" d="m107.25,12.15c0,.57-.09,1.1-.28,1.6s-.45.94-.8,1.31c-.35.38-.77.67-1.28.89-.5.22-1.08.33-1.73.33s-1.23-.11-1.73-.33c-.51-.22-.94-.52-1.28-.89-.35-.38-.61-.81-.79-1.31-.18-.5-.27-1.03-.27-1.6s.09-1.1.27-1.6c.18-.5.44-.94.79-1.31.35-.38.78-.67,1.28-.89.51-.22,1.09-.33,1.73-.33s1.22.11,1.73.33c.5.22.93.52,1.28.89.35.38.61.81.8,1.31.18.5.28,1.03.28,1.6Zm-4.08,2.58c.34,0,.65-.06.91-.19.26-.13.49-.31.67-.53.18-.23.31-.5.4-.82.09-.32.13-.66.13-1.04s-.04-.72-.13-1.04c-.09-.32-.22-.59-.4-.82-.18-.23-.4-.41-.67-.53-.26-.13-.57-.19-.91-.19s-.66.06-.92.19c-.26.13-.48.31-.66.53-.18.23-.31.5-.4.82-.09.32-.13.66-.13,1.04s.04.72.13,1.04.22.59.4.82c.18.23.4.41.66.53.26.13.57.19.92.19Z"/>
        </g>
      </g>
      <g>
        <path class="cls-2" d="m24.22,2.61c0-.23.06-.38.36-.38.25,0,.34.09.34.33,0,.09,0,.23,0,.32.08-.02.12-.03.36-.09.08-.02.11-.02.14-.02.17,0,.3.15.3.35,0,.25-.18.35-.81.44,0,.14,0,.23,0,.43.28-.05.5-.09.7-.09.89,0,1.36.45,1.36,1.11,0,1.11-1.16,1.33-1.4,1.33-.21,0-.35-.15-.35-.37,0-.21.08-.29.37-.36.46-.1.65-.28.65-.59s-.23-.48-.67-.48c-.19,0-.39.03-.65.09,0,.13.02.7.02.81,0,.39-.03.54-.13.65-.11.13-.32.2-.56.2-.66,0-1.16-.4-1.16-.92,0-.47.39-.86,1.17-1.19,0-.18,0-.36,0-.54-.22.01-.47.03-.58.03-.31,0-.41-.09-.41-.33s.09-.32.34-.32c.23,0,.27,0,.63-.03v-.36Zm-.49,2.75c0,.14.19.28.4.28.11,0,.14-.06.14-.33,0-.17,0-.31,0-.47-.35.16-.53.34-.53.52Zm2.78-2.52c.23.2.36.33.5.5.08.1.1.16.1.24,0,.19-.16.36-.35.36-.1,0-.17-.04-.27-.18-.13-.15-.22-.24-.4-.41-.18-.16-.23-.21-.23-.33,0-.17.17-.34.34-.34.09,0,.17.04.31.15Z"/>
        <path class="cls-3" d="m33.01,3.21c0,.35-.08.45-.38.47.06.46.2.88.45,1.22.15.2.18.27.18.37,0,.17-.16.31-.34.31s-.32-.14-.52-.53c-.2-.37-.31-.76-.39-1.37h-1.87c0,.9-.24,1.4-.34,1.6-.12.24-.23.34-.37.34-.19,0-.35-.14-.35-.3,0-.1.02-.13.19-.45.15-.28.24-.83.24-1.5v-.56c0-.36.09-.45.45-.45h2.62c.34,0,.43.09.43.41v.44Zm-3.52,3.07c-.14,0-.22-.1-.22-.28s.08-.28.22-.28h3.33c.14,0,.22.1.22.28s-.08.28-.22.28h-3.33Zm.65-3.11h2.14c.07,0,.07-.02.07-.21,0-.05-.02-.07-.07-.07h-2.01c-.09,0-.13.04-.13.13v.14Zm.03,1.08c0-.3.08-.38.38-.38h1.08c.31,0,.38.08.38.38v.92c0,.3-.08.38-.38.38h-1.08c-.31,0-.38-.08-.38-.38v-.92Zm1.31.27c0-.17,0-.18-.1-.18h-.57c-.09,0-.09.02-.09.18h.77Zm-.1.56c.1,0,.1-.02.1-.19h-.77c0,.17,0,.19.09.19h.57Z"/>
        <path class="cls-3" d="m36.07,2.58c0-.18.19-.33.41-.33.19,0,.28.08.33.27.09.38.18.72.33,1.11.16-.08.57-.26.79-.35.23-.09.32-.12.43-.12.18,0,.33.18.33.41,0,.18-.06.24-.29.32-.53.18-1.15.4-1.63.73-.28.18-.39.35-.39.56,0,.3.21.41.77.41.27,0,.69-.03.92-.06.25-.04.35-.05.38-.05.19,0,.31.16.31.38,0,.2-.1.32-.29.36-.22.04-.73.08-1.13.08s-.67-.02-.9-.08c-.51-.12-.8-.48-.8-.99,0-.48.28-.9.82-1.23.02-.01.03-.02.05-.03-.09-.2-.45-1.14-.45-1.39Zm2.71,0c.13.17.21.3.21.38,0,.12-.13.23-.26.23-.07,0-.12-.03-.19-.14-.09-.12-.16-.23-.23-.31-.05-.06-.07-.09-.07-.14,0-.11.13-.23.25-.23.09,0,.13.03.28.21Zm.54-.29c.14.18.21.29.21.37,0,.12-.13.23-.27.23-.07,0-.11-.03-.18-.14-.05-.08-.12-.18-.23-.31-.04-.06-.06-.09-.06-.14,0-.12.13-.23.25-.23.09,0,.15.04.28.22Z"/>
        <path class="cls-3" d="m42.58,4.7c0,.07,0,.09-.07.26-.01.04-.02.08-.02.12,0,.22.32.33.96.33.42,0,.77-.04,1.08-.12.14-.04.18-.05.24-.05.19,0,.32.16.32.36,0,.23-.11.33-.29.39-.31.09-.85.11-1.25.11-.69,0-1.11-.08-1.41-.26-.24-.14-.39-.42-.39-.72,0-.16.03-.32.09-.47.08-.19.18-.27.35-.27.22,0,.4.14.4.3Zm-.27-2.07c.21-.03.8-.07,1.22-.07.23,0,.54,0,.75.02.3.02.38.04.44.11.05.06.08.15.08.25,0,.23-.11.36-.31.36-.03,0-.09,0-.15,0-.27-.02-.48-.03-.71-.03-.42,0-.78.02-1.08.05-.09.01-.18.02-.24.02-.18,0-.29-.14-.29-.36,0-.2.1-.32.29-.35Z"/>
        <path class="cls-2" d="m47.94,4.76c-.06.04-.12.05-.19.05-.18,0-.34-.18-.34-.38,0-.1.04-.16.19-.27.23-.17.47-.43.59-.63.14-.22.2-.27.34-.27.18,0,.38.16.38.31,0,.1-.1.27-.3.53v2.06c0,.18-.12.27-.34.27s-.33-.09-.33-.27v-1.4Zm.62-1.79c-.44.39-.63.51-.8.51-.18,0-.33-.16-.33-.36,0-.13.04-.18.2-.28.23-.14.41-.29.54-.43.16-.18.21-.22.33-.22.2,0,.36.15.36.34,0,.12-.09.26-.3.43Zm2.49,1.16v1.68c0,.56-.36.56-.77.56-.45,0-.67,0-.67-.33,0-.22.09-.35.24-.35.07,0,.22.03.35.03s.17-.04.17-.18v-1.41h-1.15c-.17,0-.26-.12-.26-.33s.09-.33.26-.33h2.15c.17,0,.27.12.27.33s-.09.33-.27.33h-.31Zm-1.59-1.18c-.16,0-.25-.11-.25-.31s.09-.31.25-.31h1.7c.16,0,.25.11.25.31s-.09.31-.25.31h-1.7Z"/>
        <path class="cls-2" d="m56.51,2.6c0,.18-.11.33-.66.91-.22.23-.39.4-.51.52-.19.18-.19.18-.19.23s.02.06.21.23c.26.24.44.41.6.58.14.14.27.3.42.45.2.2.28.36.28.48,0,.23-.19.4-.43.4-.12,0-.2-.04-.28-.14-.4-.5-.66-.85-1.41-1.54-.2-.19-.26-.29-.26-.45,0-.15.05-.24.22-.4.02-.01.72-.67,1.18-1.33.19-.27.25-.31.41-.31.24,0,.43.16.43.38Z"/>
        <path class="cls-2" d="m60.59,4.65c0-.47.18-.55.49-.7.36-.17.48-.3.48-.55,0-.28-.18-.44-.51-.44s-.5.1-.63.4c-.1.23-.16.29-.35.29-.3,0-.49-.16-.49-.41,0-.38.44-1.07,1.48-1.07.83,0,1.36.46,1.36,1.19,0,.84-.59,1.09-.86,1.2-.11.05-.11.11-.11.36,0,.22-.15.33-.42.33s-.43-.12-.43-.33v-.28Zm.93,1.29c0,.28-.22.5-.5.5s-.5-.22-.5-.5.22-.5.5-.5.5.22.5.5Z"/>
      </g>
    </g>
  </g>
</svg>