<?xml version="1.0" encoding="UTF-8"?>
<svg id="_レイヤー_2" data-name="レイヤー 2" xmlns="http://www.w3.org/2000/svg" viewBox="0 0 110.13 17.56">
  <defs>
    <style>
      .cls-1 {
        fill: none;
      }

      .cls-1, .cls-2, .cls-3 {
        stroke-width: 0px;
      }

      .cls-2 {
        fill: #665b51;
      }

      .cls-3 {
        fill: #ffa64d;
      }
    </style>
  </defs>
  <g id="_レイヤー_1-2" data-name="レイヤー 1">
    <g>
      <rect class="cls-1" width="17.56" height="17.56"/>
      <g>
        <path class="cls-3" d="m7.75,10.64h1.79c.31,0,.31-.06.31-.59h-2.4c0,.54,0,.59.3.59Z"/>
        <path class="cls-3" d="m9.54,8.3h-1.79c-.3,0-.3.06-.3.58h2.4c0-.52,0-.58-.31-.58Z"/>
        <path class="cls-3" d="m8.78.59C4.25.59.59,4.25.59,8.78s3.67,8.19,8.19,8.19,8.19-3.67,8.19-8.19S13.3.59,8.78.59Zm4.59,6.99c-.08.1-.1.23-.07.36l.95,3.92c.06.33-.16.65-.5.71-.33.06-.65-.16-.71-.5l-.45-4c-.02-.13-.09-.24-.19-.31-.23-.15-.42-.43-.47-.76-.15-.85.1-1.6.55-1.68.45-.08.94.54,1.09,1.39.06.34-.02.66-.19.88ZM4.03,3.4c0-.39.31-.7.7-.7h7.85c.39,0,.7.31.7.7v1.9c-.22-.23-.48-.36-.75-.36-.05,0-.09,0-.14.01-.53.09-.86.67-.89,1.43h-5.44l.13-.75c.03-.15,0-.3-.1-.43-.09-.13-.22-.21-.37-.24-.03,0-.07,0-.1,0-.09,0-.18.02-.26.06-.08-.09-.19-.15-.32-.17-.03,0-.07,0-.1,0-.09,0-.18.02-.26.06-.08-.09-.19-.15-.32-.17-.03,0-.07,0-.1,0-.09,0-.18.02-.26.06v-1.38Zm7.53,4.63v2.88c0,.95-.24,1.19-1.2,1.19h-3.4c-.96,0-1.2-.24-1.2-1.19v-2.88c0-.95.24-1.19,1.2-1.19h3.4c.96,0,1.2.24,1.2,1.19Zm-8.35,3.82l.89-3.76c.03-.15,0-.3-.1-.41-.17-.2-.26-.47-.21-.75h0s.29-1.67.29-1.67c.02-.12.13-.19.25-.17s.19.13.17.25l-.26,1.5c-.01.07.03.14.1.15s.14-.03.15-.1l.26-1.5c.02-.12.13-.19.25-.17.12.02.19.13.17.25l-.26,1.5c-.01.07.03.14.1.15s.14-.03.15-.1l.26-1.5c.02-.12.13-.19.25-.17.12.02.19.13.17.25l-.29,1.67c-.05.28-.22.5-.45.63-.13.07-.21.21-.24.36l-.45,3.84c-.06.33-.38.56-.71.5-.33-.06-.56-.38-.5-.71Zm11.96,1.39l-3.28.61v.33h-6.23v-.33l-3.28-.61c-.14-.03-.24-.14-.24-.28,0-.16.13-.29.29-.29h12.68c.16,0,.29.13.29.29,0,.14-.1.26-.24.28Z"/>
        <rect class="cls-3" x="5.56" y="4.23" width="6.21" height=".64"/>
      </g>
    </g>
    <g>
      <rect class="cls-1" x="19.91" y="1.62" width="90.22" height="14.31"/>
      <g>
        <path class="cls-2" d="m27.68,12.4v-2.5c0-.21-.17-.38-.38-.38h-2.17c-.21,0-.38.17-.38.38v2.5c0,.21-.17.38-.38.38h-1.21c-.21,0-.38-.17-.38-.38v-7.24c0-.21.17-.38.38-.38h1.21c.21,0,.38.17.38.38v2.38c0,.21.17.38.38.38h2.17c.21,0,.38-.17.38-.38v-2.38c0-.21.17-.38.38-.38h1.21c.21,0,.38.17.38.38v7.24c0,.21-.17.38-.38.38h-1.21c-.21,0-.38-.17-.38-.38Z"/>
        <path class="cls-2" d="m35.26,12.77h-1.21c-.21,0-.38-.17-.38-.38v-7.24c0-.21.17-.38.38-.38h1.21c.21,0,.38.17.38.38v7.24c0,.21-.17.38-.38.38Z"/>
        <path class="cls-2" d="m45.68,7.31c0,.54-.15,1-.45,1.4-.22.29-.5.53-.85.72-.2.11-.24.39-.09.56l1.8,2.15c.21.25.03.62-.29.62h-1.43c-.12,0-.22-.05-.3-.14l-2.08-2.63h-.36v2.39c0,.21-.17.38-.38.38h-1.21c-.21,0-.38-.17-.38-.38v-7.24c0-.21.17-.38.38-.38h2.17c.5,0,.96.05,1.38.16.42.1.79.26,1.1.47.31.21.56.47.73.79.18.32.26.69.26,1.12Zm-1.9.04c0-.36-.14-.63-.42-.8-.28-.17-.67-.26-1.18-.26h-.56v2.24h.48c.53,0,.94-.1,1.24-.31s.44-.5.44-.88Z"/>
        <path class="cls-2" d="m54.88,4.78h1.21c.21,0,.38.17.38.38v4.73c0,.94-.3,1.68-.89,2.22-.6.54-1.43.8-2.49.8s-1.89-.27-2.49-.8c-.6-.54-.89-1.28-.89-2.22v-4.73c0-.21.17-.38.38-.38h1.21c.21,0,.38.17.38.38v4.79c0,.46.12.8.36,1.04.24.24.59.36,1.06.36s.82-.12,1.06-.36.36-.59.36-1.04v-4.79c0-.21.17-.38.38-.38Z"/>
        <path class="cls-2" d="m60.22,8.56v-.78c0-.21.17-.38.38-.38h2.53c.21,0,.38.17.38.38v.78c0,.21-.17.38-.38.38h-2.53c-.21,0-.38-.17-.38-.38Z"/>
        <path class="cls-2" d="m67.29,5.16c0-.21.17-.38.38-.38h2.06c.7,0,1.35.1,1.94.3.59.2,1.09.48,1.51.83.42.35.74.77.97,1.27.23.49.35,1.03.35,1.6s-.12,1.11-.35,1.6-.56.91-.97,1.27c-.42.35-.92.63-1.51.83-.59.2-1.23.3-1.94.3h-2.06c-.21,0-.38-.17-.38-.38v-7.24Zm2.56,6.05c.4,0,.76-.06,1.09-.17.33-.11.61-.27.85-.48s.42-.46.55-.76c.13-.3.19-.64.19-1.03s-.06-.73-.19-1.03-.31-.55-.55-.76c-.24-.21-.52-.37-.85-.48-.33-.11-.69-.17-1.09-.17h-.59v4.87h.59Z"/>
        <path class="cls-2" d="m85.79,8.78c0,.57-.09,1.1-.28,1.6s-.45.94-.8,1.31c-.35.38-.77.67-1.28.89-.5.22-1.08.33-1.73.33s-1.23-.11-1.73-.33c-.51-.22-.94-.52-1.28-.89-.35-.38-.61-.81-.79-1.31-.18-.5-.27-1.03-.27-1.6s.09-1.1.27-1.6c.18-.5.44-.94.79-1.31.35-.38.78-.67,1.28-.89.51-.22,1.09-.33,1.73-.33s1.22.11,1.73.33c.5.22.93.52,1.28.89.35.38.61.81.8,1.31.18.5.28,1.03.28,1.6Zm-4.08,2.58c.34,0,.65-.06.91-.19.26-.13.49-.31.67-.53.18-.23.31-.5.4-.82.09-.32.13-.66.13-1.04s-.04-.72-.13-1.04c-.09-.32-.22-.59-.4-.82-.18-.23-.4-.41-.67-.53-.26-.13-.57-.19-.91-.19s-.66.06-.92.19c-.26.13-.48.31-.66.53-.18.23-.31.5-.4.82-.09.32-.13.66-.13,1.04s.04.72.13,1.04.22.59.4.82c.18.23.4.41.66.53.26.13.57.19.92.19Z"/>
        <path class="cls-2" d="m89.38,12.4v-7.24c0-.21.17-.38.38-.38h1.21c.21,0,.38.17.38.38v2.19c0,.38.49.52.69.21l1.71-2.6c.07-.11.19-.17.32-.17h1.3c.3,0,.48.34.31.59l-2.15,3.14c-.09.13-.09.3,0,.43l2.31,3.23c.18.25,0,.6-.31.6h-1.42c-.13,0-.25-.06-.32-.17l-1.76-2.68c-.21-.31-.69-.17-.69.21v2.27c0,.21-.17.38-.38.38h-1.21c-.21,0-.38-.17-.38-.38Z"/>
        <path class="cls-2" d="m107.25,8.78c0,.57-.09,1.1-.28,1.6s-.45.94-.8,1.31c-.35.38-.77.67-1.28.89-.5.22-1.08.33-1.73.33s-1.23-.11-1.73-.33c-.51-.22-.94-.52-1.28-.89-.35-.38-.61-.81-.79-1.31-.18-.5-.27-1.03-.27-1.6s.09-1.1.27-1.6c.18-.5.44-.94.79-1.31.35-.38.78-.67,1.28-.89.51-.22,1.09-.33,1.73-.33s1.22.11,1.73.33c.5.22.93.52,1.28.89.35.38.61.81.8,1.31.18.5.28,1.03.28,1.6Zm-4.08,2.58c.34,0,.65-.06.91-.19.26-.13.49-.31.67-.53.18-.23.31-.5.4-.82.09-.32.13-.66.13-1.04s-.04-.72-.13-1.04c-.09-.32-.22-.59-.4-.82-.18-.23-.4-.41-.67-.53-.26-.13-.57-.19-.91-.19s-.66.06-.92.19c-.26.13-.48.31-.66.53-.18.23-.31.5-.4.82-.09.32-.13.66-.13,1.04s.04.72.13,1.04.22.59.4.82c.18.23.4.41.66.53.26.13.57.19.92.19Z"/>
      </g>
    </g>
  </g>
</svg>