<?xml version="1.0" encoding="utf-8"?>
<!-- Generator: Adobe Illustrator 18.1.1, SVG Export Plug-In . SVG Version: 6.00 Build 0)  -->
<!DOCTYPE svg PUBLIC "-//W3C//DTD SVG 1.1//EN" "http://www.w3.org/Graphics/SVG/1.1/DTD/svg11.dtd">
<svg version="1.1" id="_x31_0" xmlns="http://www.w3.org/2000/svg" xmlns:xlink="http://www.w3.org/1999/xlink" x="0px" y="0px"
	 viewBox="0 0 512 512" style="enable-background:new 0 0 512 512;" xml:space="preserve">
<style type="text/css">
	.st0{fill:#374149;}
</style>
<g>
	<path class="st0" d="M488.582,314.875c0.785-1.457,1.66-2.879,2.41-4.351c0.07-0.141,0.129-0.294,0.199-0.434
		C504.66,283.437,512,254.344,512,224.336C512,104.3,397.156,6.644,256,6.644C114.84,6.644,0,104.3,0,224.336
		C0,343.379,112.934,440.41,252.484,442.012l74.336,58.054c4.462,3.485,9.891,5.29,15.375,5.29c3.156,0,6.336-0.598,9.359-1.821
		c8.274-3.343,14.133-10.847,15.371-19.683l9.446-67.332c31.152-14.118,58.039-33.398,79.477-56.238
		C468.95,346.363,479.871,331.078,488.582,314.875z M270.406,330.773H155.34c-7.918,0-14.34-6.418-14.34-14.336
		c0-7.922,6.422-14.336,14.34-14.336h115.066c7.918,0,14.336,6.414,14.336,14.336C284.742,324.356,278.324,330.773,270.406,330.773z
		 M141,246.344c0-7.918,6.422-14.336,14.34-14.336h201.316c7.918,0,14.336,6.418,14.336,14.336s-6.418,14.34-14.336,14.34H155.34
		C147.422,260.684,141,254.261,141,246.344z M356.656,190.586H155.34c-7.918,0-14.34-6.418-14.34-14.336
		c0-7.918,6.422-14.34,14.34-14.34h201.316c7.918,0,14.336,6.422,14.336,14.34C370.992,184.168,364.574,190.586,356.656,190.586z"/>
</g>
</svg>
