<?xml version="1.0" encoding="utf-8"?>
<!-- Generator: Adobe Illustrator 27.9.1, SVG Export Plug-In . SVG Version: 6.00 Build 0)  -->
<svg version="1.1" id="_x31_0" xmlns="http://www.w3.org/2000/svg" xmlns:xlink="http://www.w3.org/1999/xlink" x="0px" y="0px"
	 viewBox="0 0 512 512" style="enable-background:new 0 0 512 512;" xml:space="preserve">
<style type="text/css">
	.st0{fill:#FF8000;}
</style>
<g>
	<path class="st0" d="M488.6,314.9c0.8-1.5,1.7-2.9,2.4-4.4c0.1-0.1,0.1-0.3,0.2-0.4c13.5-26.7,20.8-55.7,20.8-85.8
		c0-120-114.8-217.7-256-217.7C114.8,6.6,0,104.3,0,224.3c0,119,112.9,216.1,252.5,217.7l74.3,58.1c4.5,3.5,9.9,5.3,15.4,5.3
		c3.2,0,6.3-0.6,9.4-1.8c8.3-3.3,14.1-10.8,15.4-19.7l9.4-67.3c31.2-14.1,58-33.4,79.5-56.2C469,346.4,479.9,331.1,488.6,314.9z
		 M270.4,330.8H155.3c-7.9,0-14.3-6.4-14.3-14.3c0-7.9,6.4-14.3,14.3-14.3h115.1c7.9,0,14.3,6.4,14.3,14.3
		C284.7,324.4,278.3,330.8,270.4,330.8z M141,246.3c0-7.9,6.4-14.3,14.3-14.3h201.3c7.9,0,14.3,6.4,14.3,14.3s-6.4,14.3-14.3,14.3
		H155.3C147.4,260.7,141,254.3,141,246.3z M356.7,190.6H155.3c-7.9,0-14.3-6.4-14.3-14.3s6.4-14.3,14.3-14.3h201.3
		c7.9,0,14.3,6.4,14.3,14.3S364.6,190.6,356.7,190.6z"/>
</g>
</svg>
