<svg width="600" height="600" viewBox="0 0 600 600" fill="none" xmlns="http://www.w3.org/2000/svg">
<rect width="600" height="600" fill="#FCF0E3"/>
<path d="M479.238 362.961C478.284 365.559 477.332 368.152 476.269 370.695C475.398 372.777 474.425 374.817 473.48 376.863C472.734 378.496 472.022 380.145 471.23 381.75C470.039 384.16 468.738 386.516 467.449 388.871C466.777 390.097 466.144 391.351 465.449 392.562C464.062 394.968 462.566 397.308 461.078 399.652C460.359 400.785 459.683 401.942 458.941 403.058C457.456 405.292 455.863 407.46 454.281 409.636C453.433 410.8 452.628 411.999 451.753 413.148C450.203 415.179 448.558 417.136 446.925 419.109C445.925 420.319 444.964 421.566 443.933 422.75C442.273 424.66 440.519 426.492 438.781 428.34C437.699 429.488 436.659 430.676 435.55 431.801C433.512 433.863 431.375 435.84 429.238 437.813C428.371 438.614 427.543 439.457 426.66 440.243C417.438 448.45 407.363 455.817 396.516 462.184L394.519 374.922C394.359 368.922 397.718 363.399 403.078 360.758C418.116 353.399 434.757 341.961 434.519 327.399L431.957 198.282H412.575L412.278 198.278V198.282H412.117L413.481 309.641C413.481 312.438 411.32 314.758 408.598 314.758C405.88 314.758 403.637 312.438 403.637 309.641L402.68 198.282H384.574H384.519H384.359L384.519 309.641C384.519 312.438 382.359 314.758 379.637 314.758C376.918 314.758 374.68 312.438 374.68 309.641L374.918 198.68V198.442V198.282H356.598L355.637 309.641C355.637 312.438 353.399 314.758 350.68 314.758C347.957 314.758 345.801 312.438 345.801 309.641L347.141 199.778L347.16 198.442V198.282H327.238L324.757 327.399C324.437 342.758 340.917 354.121 355.956 361.161C361.398 363.802 364.839 369.399 364.757 375.482L362.437 478.2C342.598 485.238 321.238 489 299 489C278.68 489 259.078 485.801 240.68 479.961L238.278 377.559C238.117 372.04 240.84 366.681 245.637 363.961C267.399 351.559 282.68 321.879 282.68 287.079C282.68 265.457 276.746 242.345 267.082 223.852C262.64 215.294 257.421 207.692 251.531 201.77C249.949 200.176 248.317 198.719 246.656 197.372C246.598 197.325 246.547 197.266 246.488 197.219C239.301 191.43 231.394 188.04 223.078 188.04C190.199 188.04 163.48 241.079 163.48 287.079C163.48 321.88 178.757 351.559 200.518 363.961C205.319 366.68 208.038 372.039 207.878 377.559L206.46 437.165L205.726 464.798C146.886 431.984 107 369.047 107 297C107 191.16 193.078 105 299 105C404.84 105 491 191.16 491 297C491 318.848 487.32 339.848 480.57 359.426C480.156 360.617 479.676 361.782 479.238 362.961ZM226.84 225.961C220.68 228.602 214.758 233.801 209.398 241.801C206.757 245.719 204.917 249.879 203.636 254.121C202.757 257 199.159 258.121 196.839 256.121C190.999 251.16 188.358 242.68 191.636 231.641C196.038 216.438 209.878 207.079 218.757 209.641C222.999 210.84 226.679 214.922 228.999 220.602C229.879 222.68 228.84 225.078 226.84 225.961Z" fill="#FCFAF7"/>
</svg>
