<?xml version="1.0" encoding="utf-8"?>
<!-- Generator: Adobe Illustrator 27.9.1, SVG Export Plug-In . SVG Version: 6.00 Build 0)  -->
<svg version="1.1" id="_x31_0" xmlns="http://www.w3.org/2000/svg" xmlns:xlink="http://www.w3.org/1999/xlink" x="0px" y="0px"
	 viewBox="0 0 512 512" style="enable-background:new 0 0 512 512;" xml:space="preserve">
<style type="text/css">
	.st0{fill:#FF8000;}
</style>
<g>
	<path class="st0" d="M485.3,7c-3.7,0-7.3,0.8-10.8,2.4L329.9,76.9L207.3,19.7L182.1,7.9l-25.2,11.8L0,92.9v332.3
		c0,7.8,2.9,15,8.1,20.4c5,5.2,11.6,8.1,18.6,8.1c3.7,0,7.3-0.8,10.7-2.4l107-50l-0.1,0l-0.1-0.1c-15-12.6-27.2-27.8-36.2-44.8
		l-54.7,25.5V130L163,78.8v75.6c11.8-7.3,24.6-13,38.1-16.8V78.8L310.8,130v17.8c14.1,7,26.9,16.1,38.1,27.1V130l109.6-51.2v251.8
		l-82.8,38.7l1.9,3l3.5,5.5l6.1,9.5l19.3,29.7L512,367.8V35.4C512,19.8,500,7,485.3,7z"/>
	<path class="st0" d="M26.7,453.6c-6.9,0-13.5-2.9-18.5-8C3,440.2,0.2,433,0.2,425.3V92.9l156.8-73l25.2-11.8l25.1,11.8L329.8,77
		L474.6,9.6c3.4-1.6,7-2.4,10.7-2.4c14.7,0,26.6,12.7,26.6,28.3v332.3l-105.3,49l-30.7-47.6l82.7-38.4l0.1-252l-109.8,51l-0.1,45
		c-11-11.1-23.8-20.2-37.9-27.2L311,130L201.2,78.7l-0.2,58.9c-13.3,3.6-26.1,9.3-38.1,16.7l0.2-75.4l-109.9,51l-0.1,252l54.9-25.4
		c9,17.1,21.2,32.2,36.1,44.8L37.4,451.2C34,452.8,30.5,453.6,26.7,453.6z"/>
	<path class="st0" d="M201.2,322.7v-76.5c-6.7,7.3-11.6,16.3-13.8,26.5C183.4,291.3,189.2,309.7,201.2,322.7z"/>
	<path class="st0" d="M201,322.3c-12.2-13.5-17.2-32-13.4-49.6c2.1-9.8,6.8-18.9,13.7-26.4L201,322.3z"/>
	<path class="st0" d="M388.1,425.6l-17.7-27.3l-6.2-9.5l-3.5-5.5l-3,5c-16.7,18.4-37.9,32.7-61.5,41.4l-1.6,0.6
		c-1.3,0.5-2.6,1-3.9,1.4l-3.4,1.1l-1.7,0.6l0.6,0.9l2.3,3.5l30.2,46.6c6.6,10.1,16.7,17,28.5,19.6c3.1,0.6,6.2,1,9.4,1
		c8.7,0,17.2-2.5,24.5-7.3c10.1-6.6,17.1-16.7,19.6-28.5c2.5-11.8,0.3-23.9-6.3-34L388.1,425.6z"/>
	<path class="st0" d="M356.6,504.8c-3.2,0-6.3-0.3-9.4-1c-11.8-2.5-21.8-9.4-28.4-19.5l-32.5-50.1l-0.7-0.9l1.7-0.3l3.4-1.1
		c1.2-0.4,2.3-0.8,3.4-1.2l2.1-0.8c23.6-8.7,44.9-23,61.6-41.5l3-5.1l3.3,5.5l30.2,46.5c6.6,10.1,8.8,22.1,6.3,33.8
		c-2.5,11.8-9.4,21.8-19.5,28.4C373.7,502.3,365.3,504.8,356.6,504.8z"/>
	<path class="st0" d="M349,363.2v0.2l0.9-1.6c3.9-5.2,7.3-10.8,10.3-16.6c5.4-10.3,9.5-21.5,12-33.3c3.6-17,3.9-34.2,0.8-51.2
		l-0.1-0.6c-0.4-1.9-0.8-3.7-1.2-5.6l-0.1-0.2l-0.1-0.6c-0.4-1.9-0.9-3.8-1.5-5.6l-0.1-0.2l0-0.2c-4.5-15.5-11.6-29.8-20.9-42.3
		c-10.3-13.9-23.3-25.6-38.1-34.6c-12.4-7.4-26-12.9-40.6-16c-9.1-1.9-18.5-2.9-27.7-2.9c-14.4,0-28.3,2.4-41.4,6.8
		c-13.8,4.6-26.7,11.4-38.1,20.1c-24.8,18.7-43,46-49.8,78c-3.6,16.9-3.9,34.2-0.8,51.1l0.1,0.6c0.3,1.9,0.7,3.7,1.2,5.5l0,0.3
		l0.1,0.5c0.4,1.9,0.9,3.8,1.5,5.6l0.1,0.5c2.7,9.3,6.4,18.2,10.9,26.6c7.8,14.4,18.3,27.2,31,37.9l0.3,0.3c1.6,1.3,3.1,2.6,4.7,3.7
		l0.4,0.3l0.2,0.2c0.7,0.5,1.4,1.1,2.1,1.5c0.8,0.6,1.6,1.2,2.5,1.8l0.3,0.2c14.4,9.9,30.3,16.6,47.2,20.2c9.1,1.9,18.4,3,27.7,3
		c3.1,0,6.2-0.1,9.3-0.4C291.1,413.7,326.3,393.6,349,363.2z M317.8,300.4c-1.5,6.8-3.8,13.3-6.9,19.2
		c-10.1,19.4-28.1,33.8-49.3,39.2c-6.1,1.6-12.4,2.4-18.9,2.4c-5.4,0-10.7-0.6-16-1.7c-41.4-8.8-67.9-49.6-59.1-91.1
		c4.3-20.5,16.8-37.7,33.6-48.5c12.1-7.8,26.4-12.3,41.5-12.3c5.4,0,10.8,0.6,16,1.7c20,4.3,37.2,16.1,48.4,33.3
		c1.4,2.1,2.6,4.3,3.8,6.5C319,264.9,321.5,282.9,317.8,300.4z"/>
	<path class="st0" d="M242.8,416.7c-9.2,0-18.5-1-27.6-3c-16.9-3.6-32.8-10.4-47.2-20.2c-1.2-0.8-2-1.4-2.8-2
		c-0.7-0.5-1.4-1-2.1-1.5l-0.7-0.5c-1.4-1-2.7-2.1-4-3.2l-0.6-0.5c-13-11-23.4-23.7-31.3-38.2c-4.6-8.5-8.3-17.4-10.9-26.6
		c-0.7-2.4-1.2-4.3-1.6-6.2l-0.2-0.8c-0.4-1.8-0.8-3.6-1.2-5.5c-3.2-17.5-2.9-34.7,0.7-51.7c6.6-31,24.3-58.6,49.8-77.9
		c11.6-8.8,24.4-15.5,38.1-20.1c13.3-4.5,27.2-6.8,41.4-6.8c9.3,0,18.6,1,27.6,2.9c14.3,3,27.9,8.4,40.6,16
		c15,9,27.8,20.6,38.1,34.5c9.4,12.7,16.5,26.9,20.9,42.2c0.6,2.3,1.1,4.3,1.6,6.1l0.4,1.6c0.3,1.6,0.7,3.2,1,4.8
		c3.1,17.5,2.9,34.7-0.7,51.7c-2.5,11.6-6.5,22.8-12,33.2c-3.1,5.9-6.5,11.5-10.2,16.6l-0.9,1.6c-23.2,30.9-58.4,50.3-96.7,53
		C249.1,416.6,245.9,416.7,242.8,416.7z M242.7,207.5c-14.7,0-29.1,4.3-41.6,12.4c-17.2,11.1-29.5,28.8-33.7,48.6
		c-8.8,41.5,17.8,82.4,59.3,91.3c5.3,1.1,10.6,1.7,16,1.7c6.4,0,12.8-0.8,18.9-2.4c21.2-5.5,39.2-19.8,49.4-39.3
		c3.2-6.1,5.5-12.5,7-19.3c3.7-17.4,1.2-35.7-7-51.4c-1.1-2.2-2.4-4.4-3.8-6.5c-11.2-17.3-28.4-29.1-48.5-33.4
		C253.4,208.1,248,207.5,242.7,207.5z"/>
</g>
</svg>
