<svg width="241" height="241" viewBox="0 0 241 241" fill="none" xmlns="http://www.w3.org/2000/svg">
<path d="M233.618 161.897C233.019 163.528 232.422 165.155 231.755 166.751C231.208 168.058 230.597 169.338 230.004 170.622C229.536 171.647 229.089 172.682 228.592 173.689C227.845 175.202 227.028 176.681 226.219 178.159C225.798 178.928 225.4 179.715 224.964 180.475C224.094 181.985 223.155 183.454 222.221 184.925C221.77 185.636 221.345 186.362 220.88 187.062C219.948 188.465 218.948 189.825 217.955 191.191C217.423 191.921 216.918 192.674 216.368 193.395C215.396 194.67 214.363 195.898 213.338 197.136C212.711 197.896 212.108 198.678 211.461 199.421C210.419 200.62 209.318 201.77 208.227 202.93C207.548 203.65 206.895 204.396 206.199 205.102C204.92 206.396 203.579 207.637 202.238 208.875C201.694 209.378 201.174 209.907 200.62 210.4C194.832 215.551 188.509 220.174 181.701 224.17L180.448 169.404C180.348 165.639 182.456 162.172 185.82 160.515C195.258 155.896 205.702 148.718 205.552 139.579L203.944 58.5442H191.78L191.594 58.5417V58.5442H191.493L192.349 128.434C192.349 130.189 190.993 131.645 189.284 131.645C187.578 131.645 186.171 130.189 186.171 128.434L185.57 58.5442H174.207H174.172H174.072L174.172 128.434C174.172 130.189 172.816 131.645 171.108 131.645C169.402 131.645 167.997 130.189 167.997 128.434L168.146 58.794V58.6446V58.5442H156.649L156.046 128.434C156.046 130.189 154.641 131.645 152.935 131.645C151.226 131.645 149.872 130.189 149.872 128.434L150.713 59.4831L150.725 58.6446V58.5442H138.222L136.665 139.579C136.464 149.218 146.807 156.349 156.246 160.768C159.661 162.425 161.821 165.938 161.769 169.756L160.313 234.222C147.862 238.639 134.457 241 120.5 241C107.747 241 95.4448 238.992 83.8981 235.327L82.3906 171.059C82.2896 167.595 83.9985 164.232 87.0092 162.525C100.667 154.741 110.257 136.114 110.257 114.274C110.257 100.703 106.533 86.1983 100.468 74.592C97.6803 69.221 94.4049 64.4499 90.7083 60.7333C89.7154 59.7329 88.6911 58.8184 87.6487 57.973C87.6123 57.9436 87.5803 57.9065 87.5433 57.877C83.0327 54.2438 78.0702 52.1162 72.851 52.1162C52.216 52.1162 35.4471 85.4037 35.4471 114.274C35.4471 136.115 45.035 154.741 58.6923 162.525C61.7054 164.231 63.4119 167.595 63.3115 171.059L62.4215 208.468L61.9608 225.811C25.0326 205.217 0 165.717 0 120.5C0 54.0744 54.0229 0 120.5 0C186.926 0 241 54.0744 241 120.5C241 134.212 238.69 147.392 234.454 159.679C234.194 160.426 233.893 161.157 233.618 161.897ZM75.2121 75.9156C71.346 77.5731 67.6294 80.836 64.2654 85.8569C62.6079 88.3158 61.4531 90.9267 60.6492 93.589C60.0975 95.3958 57.8394 96.0994 56.3833 94.8442C52.7181 91.7306 51.0606 86.4085 53.1179 79.4804C55.8806 69.939 64.5667 64.0652 70.1392 65.6731C72.8015 66.4256 75.111 68.9875 76.5671 72.5523C77.1194 73.8565 76.4673 75.3615 75.2121 75.9156Z" fill="#FFFFFF"/>
</svg>
