<?xml version="1.0" encoding="utf-8"?>
<!-- Generator: Adobe Illustrator 27.9.1, SVG Export Plug-In . SVG Version: 6.00 Build 0)  -->
<svg version="1.1" id="レイヤー_1" xmlns="http://www.w3.org/2000/svg" xmlns:xlink="http://www.w3.org/1999/xlink" x="0px"
	 y="0px" viewBox="0 0 241 241" style="enable-background:new 0 0 241 241;" xml:space="preserve">
<style type="text/css">
	.st0{fill:#FF8000;}
</style>
<path class="st0" d="M233.6,161.9c-0.6,1.6-1.2,3.3-1.9,4.9c-0.5,1.3-1.2,2.6-1.8,3.9c-0.5,1-0.9,2.1-1.4,3.1
	c-0.7,1.5-1.6,3-2.4,4.5c-0.4,0.8-0.8,1.6-1.3,2.3c-0.9,1.5-1.8,3-2.7,4.4c-0.5,0.7-0.9,1.4-1.3,2.1c-0.9,1.4-1.9,2.8-2.9,4.1
	c-0.5,0.7-1,1.5-1.6,2.2c-1,1.3-2,2.5-3,3.7c-0.6,0.8-1.2,1.5-1.9,2.3c-1,1.2-2.1,2.3-3.2,3.5c-0.7,0.7-1.3,1.5-2,2.2
	c-1.3,1.3-2.6,2.5-4,3.8c-0.5,0.5-1.1,1-1.6,1.5c-5.8,5.2-12.1,9.8-18.9,13.8l-1.3-54.8c-0.1-3.8,2-7.2,5.4-8.9
	c9.4-4.6,19.9-11.8,19.7-20.9l-1.6-81h-12.2l-0.2,0v0h-0.1l0.9,69.9c0,1.8-1.4,3.2-3.1,3.2c-1.7,0-3.1-1.5-3.1-3.2l-0.6-69.9h-11.4
	h0h-0.1l0.1,69.9c0,1.8-1.4,3.2-3.1,3.2c-1.7,0-3.1-1.5-3.1-3.2l0.1-69.6v-0.1v-0.1h-11.5l-0.6,69.9c0,1.8-1.4,3.2-3.1,3.2
	c-1.7,0-3.1-1.5-3.1-3.2l0.8-69l0-0.8v-0.1h-12.5l-1.6,81c-0.2,9.6,10.1,16.8,19.6,21.2c3.4,1.7,5.6,5.2,5.5,9l-1.5,64.5
	c-12.5,4.4-25.9,6.8-39.8,6.8c-12.8,0-25.1-2-36.6-5.7l-1.5-64.3c-0.1-3.5,1.6-6.8,4.6-8.5c13.7-7.8,23.2-26.4,23.2-48.3
	c0-13.6-3.7-28.1-9.8-39.7c-2.8-5.4-6.1-10.1-9.8-13.9c-1-1-2-1.9-3.1-2.8c0,0-0.1-0.1-0.1-0.1c-4.5-3.6-9.5-5.8-14.7-5.8
	c-20.6,0-37.4,33.3-37.4,62.2c0,21.8,9.6,40.5,23.2,48.3c3,1.7,4.7,5.1,4.6,8.5l-0.9,37.4L62,225.8C25,205.2,0,165.7,0,120.5
	C0,54.1,54,0,120.5,0C186.9,0,241,54.1,241,120.5c0,13.7-2.3,26.9-6.5,39.2C234.2,160.4,233.9,161.2,233.6,161.9z M75.2,75.9
	c-3.9,1.7-7.6,4.9-10.9,9.9c-1.7,2.5-2.8,5.1-3.6,7.7c-0.6,1.8-2.8,2.5-4.3,1.3c-3.7-3.1-5.3-8.4-3.3-15.4
	c2.8-9.5,11.4-15.4,17-13.8c2.7,0.8,5,3.3,6.4,6.9C77.1,73.9,76.5,75.4,75.2,75.9z"/>
</svg>
