<?xml version="1.0" encoding="utf-8"?>
<!-- Generator: Adobe Illustrator 19.1.1, SVG Export Plug-In . SVG Version: 6.00 Build 0)  -->
<svg version="1.1" id="_x31_0" xmlns="http://www.w3.org/2000/svg" xmlns:xlink="http://www.w3.org/1999/xlink" x="0px" y="0px"
	 viewBox="0 0 512 512" style="enable-background:new 0 0 512 512;" xml:space="preserve">
<style type="text/css">
	.st0{fill:#374149;}
</style>
<g>
	<path class="st0" d="M254.638,312.563c49.77,0,90.258-40.489,90.258-90.258c0-49.766-40.488-90.258-90.258-90.258
		s-90.258,40.492-90.258,90.258C164.38,272.074,204.868,312.563,254.638,312.563z M254.638,301.57
		c-43.707,0-79.262-35.558-79.262-79.265c0-43.703,35.554-79.262,79.262-79.262c43.706,0,79.266,35.558,79.266,79.262
		C333.903,266.012,298.344,301.57,254.638,301.57z"/>
	<path class="st0" d="M248.669,161.044c-23.894,2.664-43.168,22.496-45.218,46.449c-1.402,16.367,4.969,31.39,15.816,41.679
		c2-38.258,33.766-68.754,72.449-68.754c0.653,0,1.301,0.031,1.954,0.051c0.41,0.054,0.855,0.019,1.234,0.133
		c-0.027-0.035-0.062-0.066-0.09-0.102c0.07,0.004,0.145,0.004,0.219,0.004C284.536,167.02,267.462,158.949,248.669,161.044z"/>
	<path class="st0" d="M496.828,104.454l-8.246-2.086l-10.114-2.586l-11.434-2.86l-16.05-4.066l-0.274-0.054l-1.047-0.274
		l-15.554-3.961l-2.75-0.66l-15.168-3.844l-4.618,14.95l-4.359,14.09l-2.805,8.734c-32.386-48.207-87.426-79.992-149.773-79.992
		c-60.918,0-114.82,30.39-147.511,76.746c-3.035,4.266-5.958,8.629-8.637,13.188c-13.465-19.051-32.465-33.645-52.016-33.645
		c-3.683,0-7.308,0.492-10.773,1.485c-16.051,4.726-27.758,19.457-32.926,41.499c-4.18,17.754-3.63,38.094,1.594,55.793
		c7.695,26.387,26.109,47.11,47.492,53.926l52.218,195.136c3.738,14.238,16.547,24.183,31.004,24.183
		c1.977,0,3.957-0.164,5.878-0.546c8.962-1.758,16.711-7.199,21.332-15.008c4.614-7.805,5.715-17.203,2.969-25.836l-11.07-34.746
		l-8.874-28.286c30.316,23.226,68.23,37.031,109.32,37.031c29.926,0,58.117-7.418,82.976-20.367
		c0.871-0.453,1.774-0.836,2.641-1.305c1.879-1.015,3.668-2.168,5.504-3.246c6.59-3.848,13.039-8.004,19.203-12.711l-17.813,64.293
		c-2.363,8.406-1.211,17.531,3.191,25.062c4.286,7.422,11.211,12.645,19.512,14.73c2.473,0.606,5.054,0.934,7.641,0.934
		c15.007,0,27.812-10.332,31.222-25.175l46.394-202.996c25.668-6.32,33.859-19.074,36.113-28.859l0.055-0.274l0.054-0.274
		l17.645-88.941l3.023-15.39L496.828,104.454z M137.829,453.394c-0.934,0.218-1.867,0.274-2.746,0.274
		c-6.981,0-13.246-5-15.118-11.981L66.978,243.414c-0.988-3.683-3.793-6.707-7.476-7.586c-16.766-3.957-32.598-20.614-39.301-43.535
		c-8.906-30.344-1.543-70.473,20.171-76.843c1.977-0.551,4.012-0.825,6.102-0.825c15.282,0,32.375,15.004,43.371,34.078
		c3.848,6.539,6.926,13.523,8.957,20.558c6.707,22.922,2.363,45.457-9.562,57.878c-2.637,2.696-3.41,6.762-2.254,10.391
		l33.641,105.429l28.914,90.754C152.286,442.398,146.954,451.632,137.829,453.394z M439.77,107.044l-15.554,53.535l-6.266,21.492
		c-0.496,1.926,0.55,3.843,2.418,4.285c0.278,0.055,0.551,0.11,0.828,0.11c1.535,0,2.969-1.098,3.406-2.691l3.297-11.875
		l17.754-63.379l11.434,2.914l-19.512,75.582c-0.496,1.926,0.606,3.852,2.473,4.344c0.274,0.054,0.55,0.11,0.824,0.11
		c1.539,0,2.969-1.102,3.355-2.746l18.742-75.804l11.488,2.859l-17.262,76.242c-0.438,1.867,0.661,3.848,2.531,4.286
		c0.274,0.058,0.547,0.109,0.821,0.109c1.542,0,2.969-1.098,3.355-2.746l15.95-73.851l0.546-2.5l12.359,3.133l-17.586,88.937
		c-2.309,9.95-15.61,14.844-27.102,17.262c-4.121,0.879-7.312,4.07-8.246,8.191L392.61,441.3
		c-1.648,7.367-8.082,12.367-15.117,12.367c-1.211,0-2.418-0.11-3.629-0.442c-8.297-2.086-13.192-10.878-10.829-19.402
		l24.958-90.094l31.496-113.671c1.156-4.07-0.219-8.465-3.52-11.215c-3.078-2.527-6.21-5.445-8.847-8.633
		c-4.379-5.183-7.465-11.031-7.004-16.93c0.012-0.16,0.035-0.324,0.054-0.484c0.082-0.754,0.203-1.508,0.406-2.266l2.09-6.813
		l13.137-42.546l11.489-37.27l12.132,3.05L439.77,107.044z M103.697,235.664c14.343-17.371,18.633-44.746,10.937-71.023
		c-0.218-0.766-0.437-1.535-0.714-2.305c23.363-54.641,77.617-93.008,140.718-93.008c61.398,0,114.445,36.336,138.742,88.61
		l-8.574,27.703l-0.058,0.273l-0.11,0.278c-2.746,10.004-1.699,25.504,17.977,42.984l-22.152,79.981
		c-27.594,39.961-73.715,66.129-125.824,66.129c-54.199,0-101.91-28.309-129.066-70.965L103.697,235.664z"/>
	<path class="st0" d="M41.693,130.563c-6.324,0-13.687,8.852-13.633,19.734c-0.054,7.914,3.351,13.027,8.191,15.172
		c0.383,0.164,0.77,0.274,1.153,0.274c1.484,0,2.859-1.262,2.914-2.969c0-3.02,0.442-6.102,1.375-9.23
		c1.977-6.27,4.946-10.832,8.465-13.801c1.156-0.989,1.375-2.746,0.382-3.902C47.958,132.544,44.716,130.563,41.693,130.563z"/>
</g>
</svg>
