<?xml version="1.0" encoding="utf-8"?>
<!-- Generator: Adobe Illustrator 27.9.1, SVG Export Plug-In . SVG Version: 6.00 Build 0)  -->
<svg version="1.1" id="_x31_0" xmlns="http://www.w3.org/2000/svg" xmlns:xlink="http://www.w3.org/1999/xlink" x="0px" y="0px"
	 viewBox="0 0 512 512" style="enable-background:new 0 0 512 512;" xml:space="preserve">
<style type="text/css">
	.st0{fill:#FF8000;}
</style>
<g>
	<path class="st0" d="M256,0C114.6,0,0,114.6,0,256c0,141.4,114.6,256,256,256c141.4,0,256-114.6,256-256C512,114.6,397.4,0,256,0z
		 M403.4,354.8c-3,11.7-28.4,49.8-49.7,49.8h-0.9c-5.6-0.3-14.8-3.3-29-9.4C230.6,355,157,281.4,116.7,188.2
		c-6.2-14.2-9.1-23.4-9.4-29c-1-21.5,37.7-47.5,49.8-50.6c3.1-0.7,6.3-1.2,9.6-1.2c12.2,0,23.4,5.5,30.9,15.1l20,25.7
		c11.8,15.1,11,36.4-2,50.6c-3.4,3.8-8.2,8.7-11.9,11.8c0.8,8.7,28.6,42.5,42.2,55.5c11.6,12.1,45.9,41.1,55.6,42.2
		c2.5-3,6.5-7,11.8-11.9c7.2-6.6,16.6-10.3,26.5-10.3c8.7,0,17.2,3,24.1,8.2l25.7,20C401.8,323.8,407.2,339.8,403.4,354.8z"/>
</g>
</svg>
