<?xml version="1.0" encoding="utf-8"?>
<!-- Generator: Adobe Illustrator 18.0.0, SVG Export Plug-In . SVG Version: 6.00 Build 0)  -->
<!DOCTYPE svg PUBLIC "-//W3C//DTD SVG 1.1//EN" "http://www.w3.org/Graphics/SVG/1.1/DTD/svg11.dtd">
<svg version="1.1" id="_x31_0" xmlns="http://www.w3.org/2000/svg" xmlns:xlink="http://www.w3.org/1999/xlink" x="0px" y="0px"
	 viewBox="0 0 512 512" style="enable-background:new 0 0 512 512;" xml:space="preserve">
<style type="text/css">
	.st0{fill:#ffffff;}
</style>
<g>
	<path class="st0" d="M256,0C114.614,0,0,114.614,0,256c0,141.383,114.614,256,256,256c141.383,0,256-114.617,256-256
		C512,114.614,397.383,0,256,0z M341.062,185.898l-37.145,48.453l-1.734,2.266h80.106v33.223H281.543v37h100.746v33.222H281.543
		v85.614h-51.09v-85.614H129.762V306.84h100.691v-37H129.762v-33.223h80.055l-1.738-2.266l-37.141-48.453l-56.297-73.515h65.75
		l48.84,63.738l5.977,7.778L256,211.125l20.793-27.226l5.977-7.778l48.84-63.738h65.75L341.062,185.898z"/>
</g>
</svg>
