<?xml version="1.0" encoding="utf-8"?>
<!-- Generator: Adobe Illustrator 27.9.1, SVG Export Plug-In . SVG Version: 6.00 Build 0)  -->
<svg version="1.1" id="_x31_0" xmlns="http://www.w3.org/2000/svg" xmlns:xlink="http://www.w3.org/1999/xlink" x="0px" y="0px"
	 viewBox="0 0 512 512" style="enable-background:new 0 0 512 512;" xml:space="preserve">
<style type="text/css">
	.st0{fill:#FF8000;}
</style>
<g>
	<path class="st0" d="M256,0C114.6,0,0,114.6,0,256c0,141.4,114.6,256,256,256c141.4,0,256-114.6,256-256C512,114.6,397.4,0,256,0z
		 M341.1,185.9l-37.1,48.5l-1.7,2.3h80.1v33.2H281.5v37h100.7v33.2H281.5v85.6h-51.1v-85.6H129.8v-33.2h100.7v-37H129.8v-33.2h80.1
		l-1.7-2.3l-37.1-48.5l-56.3-73.5h65.8l48.8,63.7l6,7.8l20.8,27.2l20.8-27.2l6-7.8l48.8-63.7h65.8L341.1,185.9z"/>
</g>
</svg>
