<?xml version="1.0" encoding="utf-8"?>
<!-- Generator: Adobe Illustrator 27.9.1, SVG Export Plug-In . SVG Version: 6.00 Build 0)  -->
<svg version="1.1" id="_x31_0" xmlns="http://www.w3.org/2000/svg" xmlns:xlink="http://www.w3.org/1999/xlink" x="0px" y="0px"
	 viewBox="0 0 512 512" style="enable-background:new 0 0 512 512;" xml:space="preserve">
<style type="text/css">
	.st0{fill:#FF8000;}
</style>
<g>
	<path class="st0" d="M484.1,176.9H350.3c-12,0-22.7-7.8-26.4-19.2L282.4,30.4c-8.3-25.6-44.6-25.6-52.9,0l-41.4,127.3
		c-3.7,11.5-14.4,19.2-26.4,19.2H27.9c-26.9,0-38.1,34.5-16.3,50.3l108.3,78.7c9.7,7.1,13.8,19.6,10.1,31.1L88.6,464.3
		c-8.3,25.6,21,46.9,42.8,31.1l108.3-78.7c9.7-7.1,22.9-7.1,32.7,0l108.3,78.7c21.8,15.8,51.1-5.5,42.8-31.1L382.1,337
		c-3.7-11.5,0.4-24,10.1-31.1l108.3-78.7C522.3,211.4,511.1,176.9,484.1,176.9z"/>
</g>
</svg>
