<?xml version="1.0" encoding="utf-8"?>
<!-- Generator: Adobe Illustrator 27.9.1, SVG Export Plug-In . SVG Version: 6.00 Build 0)  -->
<svg version="1.1" id="_x31_0" xmlns="http://www.w3.org/2000/svg" xmlns:xlink="http://www.w3.org/1999/xlink" x="0px" y="0px"
	 viewBox="0 0 512 512" style="enable-background:new 0 0 512 512;" xml:space="preserve">
<style type="text/css">
	.st0{fill:#FF8000;}
</style>
<g>
	<path class="st0" d="M482.6,136.8c-4-7.4-8.3-14.7-13-21.7c-4.6-7-9.7-13.8-15-20.4c-5-6.2-10.3-12.2-15.9-17.8
		C392.2,29.4,327.6,0.1,256.1,0.1c-71.7,0-136.5,29.5-183,77.1C67.5,82.9,62.2,88.8,57.1,95c-5.2,6.4-10.1,13.1-14.7,20.1
		s-9,14.2-13,21.7C10.6,172.4,0,213,0,256c0,61,21.4,117,57.1,161c5,6.2,10.4,12.2,15.9,17.8c46.6,47.6,111.4,77.1,183,77.1
		c71.4,0,136.2-29.4,182.6-76.8c5.6-5.7,11-11.6,16-17.8C490.5,373.3,512,317.1,512,256C512,213,501.4,172.4,482.6,136.8z
		 M336.3,382.1c0.4,0.1,0.8,0.2,1.2,0.3c-17,39.9-41.8,67.6-69.6,73.7c-0.2,0.1-0.5,0.1-0.7,0.2v-83.1c21.8,0.6,42.6,3.2,62.1,7.4
		C331.6,381,333.9,381.5,336.3,382.1z M267.1,162.5c19.3-0.5,37.8-2.4,55.6-5.4c7.9-1.4,15.7-2.9,23.2-4.9c3,9.1,5.5,18.7,7.7,28.6
		c1.7,7.7,3,15.4,4.2,23.4c1.9,12.7,3,25.9,3.5,39.3c0,0.5,0.1,0.9,0.1,1.4h-94.2V162.5z M393.4,109.8c-10,4.9-20.9,9.4-32.7,13.2
		c-8.8-21.2-19.6-39.5-32.2-54.1c21.2,8.1,40.6,20,57.6,34.5C388.5,105.6,391,107.5,393.4,109.8z M337.5,129.7
		c-2.7,0.6-5.4,1.2-8.2,1.8c-19.2,4.2-39.8,6.7-61.2,7.3c-0.3,0-0.6,0-0.9,0v-83c0.2,0.1,0.5,0.1,0.7,0.2
		c25.8,5.7,49.1,30.2,66.1,65.8C335.1,124.4,336.3,127,337.5,129.7z M361.3,267.1c-0.6,21.9-3.2,42.9-7.4,62.6
		c-1.8,8.8-4,17.4-6.6,25.6l-1.4,4.6c-7.5-1.9-15.2-3.5-23.1-4.9c-17.7-3-36.3-4.9-55.6-5.4v-82.4h91.5L361.3,267.1z M328.8,442.8
		c12.4-14.5,23.2-32.8,31.9-53.8c9.8,3.2,18.9,6.9,27.5,10.9c1.7,0.8,3.5,1.5,5.2,2.4c-15.2,14.3-32.7,26.1-51.8,35.1
		C337.4,439.3,333.2,441.2,328.8,442.8z M373.8,349.4c2.2-8.5,4.1-17.4,5.8-26.4c3-17.7,4.9-36.5,5.4-56h67.1l4.4,0
		c-0.2,2.6-0.3,5.2-0.6,7.7c-1,11.5-3,22.6-6.1,33.4v0.2c-7.5,28.2-21,53.9-39.1,75.7c-12.6-6.8-26.6-12.8-41.7-17.7
		C370.6,360.9,372.3,355.2,373.8,349.4z M456.3,244.9h-71.4c-0.4-16-1.8-31.5-4-46.3c-1-8-2.5-15.9-4.1-23.6
		c-2.2-10.2-4.9-20-7.8-29.4c15-5,29-10.9,41.5-17.6c7.1,8.4,13.4,17.4,18.9,27c3.8,6.4,7.2,13,10.2,19.8
		c9.3,20.9,15,43.8,16.6,67.7C456.1,243.4,456.3,244.2,456.3,244.9z M125.6,408.1c-2.3-2-4.8-3.9-7-6.1c10.1-4.9,21-9.3,32.7-13.2
		c6.9,16.9,15.4,32,24.8,44.8c2.3,3.2,4.7,6.4,7.1,9.4C161.9,434.7,142.6,422.7,125.6,408.1z M56.2,274.7c-0.2-2.5-0.4-5-0.6-7.6
		h71.5c0.5,19.5,2.4,38.2,5.5,56c1.5,9,3.4,17.9,5.6,26.4c1.4,5.8,3,11.4,4.8,16.9c-15.1,4.8-29.1,10.7-41.7,17.5
		c-18-21.8-31.5-47.4-39.1-75.4v-0.2C59.4,297.4,57.3,286.2,56.2,274.7z M135.4,175c-1.6,7.7-3,15.6-4.2,23.6
		c-2.2,14.8-3.5,30.3-3.9,46.3H58.4l-2.8,0c1.3-24.8,7.2-48.5,16.9-70.1c3-6.9,6.3-13.4,10.2-19.8c5.5-9.4,11.8-18.4,18.8-26.8
		c12.6,6.7,26.5,12.6,41.5,17.5C140.1,155.1,137.5,164.9,135.4,175z M118.5,110c18.6-17.6,40.7-31.6,65.1-41
		c-12.6,14.6-23.5,33-32.3,54.2c-9.9-3.2-19.2-7-27.9-11C121.8,111.4,120.1,110.8,118.5,110z M198.2,353.5c-8,1.1-15.9,2.6-23.5,4.2
		c-2.9,0.6-5.7,1.3-8.5,2l-1.4-4.6c-2.6-8.2-4.7-16.7-6.6-25.5c-4.2-19.7-6.9-40.7-7.4-62.6h93.8h0.4v82.4
		C228.9,349.9,213.2,351.3,198.2,353.5z M150.7,244.9c0.4-13.9,1.6-27.6,3.6-40.7c1-8,2.5-15.8,4.2-23.4c2.2-9.9,4.7-19.4,7.7-28.5
		c2.8,0.7,5.6,1.4,8.5,2c7.6,1.6,15.5,3,23.5,4.2c14.9,2.2,30.6,3.5,46.8,3.9v82.5h-92.8H150.7z M174.7,382.2c1.9-0.5,3.8-1,5.8-1.4
		c7.7-1.8,15.4-3.1,23.4-4.2c13.3-2,27-3.2,41.1-3.6v83.2c-0.2-0.1-0.5-0.1-0.7-0.2c-26-5.9-49.5-30.6-66.4-66.6
		C176.8,387.1,175.7,384.7,174.7,382.2z M245,137.1v1.8c-14.1-0.4-27.8-1.6-41.1-3.6c-8-1-15.8-2.5-23.4-4.2
		c-1.8-0.3-3.5-0.8-5.2-1.2c-0.2-0.1-0.5-0.1-0.7-0.2c17.1-39.9,42-67.6,69.8-73.7c0.2-0.1,0.5-0.1,0.7-0.1L245,137.1L245,137.1z"/>
</g>
</svg>
