<?xml version="1.0" encoding="utf-8"?>
<!-- Generator: Adobe Illustrator 18.1.1, SVG Export Plug-In . SVG Version: 6.00 Build 0)  -->
<!DOCTYPE svg PUBLIC "-//W3C//DTD SVG 1.1//EN" "http://www.w3.org/Graphics/SVG/1.1/DTD/svg11.dtd">
<svg version="1.1" id="_x31_0" xmlns="http://www.w3.org/2000/svg" xmlns:xlink="http://www.w3.org/1999/xlink" x="0px" y="0px"
	 viewBox="0 0 512 512" style="enable-background:new 0 0 512 512;" xml:space="preserve">
<style type="text/css">
	.st0{fill:#374149;}
</style>
<g>
	<path class="st0" d="M482.558,136.798c-4-7.441-8.32-14.718-12.957-21.679c-4.641-7.039-9.68-13.84-14.961-20.398
		c-5.039-6.242-10.321-12.16-15.922-17.84C392.238,29.439,327.602,0.08,256.078,0.08c-71.68,0-136.477,29.519-183.039,77.117
		c-5.52,5.684-10.801,11.602-15.918,17.84c-5.199,6.402-10.082,13.122-14.722,20.082s-8.957,14.238-12.957,21.679
		C10.641,172.4,0,212.959,0,255.998c0,60.962,21.442,116.962,57.121,160.962c5.039,6.16,10.398,12.16,15.918,17.839
		c46.562,47.602,111.442,77.122,183.039,77.122c71.441,0,136.16-29.442,182.562-76.801c5.598-5.68,10.961-11.602,16-17.762
		C490.481,373.279,512,317.119,512,255.998C512,212.959,501.359,172.4,482.558,136.798z M336.274,382.057
		c0.394,0.109,0.758,0.168,1.156,0.289c-17.039,39.906-41.836,67.578-69.59,73.734c-0.23,0.078-0.465,0.082-0.699,0.156v-83.113
		c21.754,0.64,42.625,3.199,62.141,7.355C331.61,380.959,333.942,381.51,336.274,382.057z M267.141,162.478
		c19.274-0.481,37.828-2.398,55.578-5.442c7.922-1.359,15.68-2.878,23.203-4.878c2.958,9.121,5.52,18.722,7.68,28.64
		c1.68,7.68,3.039,15.442,4.156,23.442c1.859,12.676,3.008,25.89,3.516,39.324c0.015,0.466,0.062,0.906,0.074,1.371h-94.207V162.478
		z M393.375,109.791c-9.985,4.945-20.918,9.414-32.657,13.246c-8.797-21.199-19.598-39.519-32.238-54.078
		c21.246,8.109,40.57,19.992,57.582,34.504C388.504,105.572,391.023,107.545,393.375,109.791z M337.488,129.686
		c-2.706,0.637-5.418,1.199-8.206,1.832c-19.238,4.179-39.809,6.707-61.231,7.316c-0.304,0.008-0.601,0.035-0.91,0.039V55.846
		c0.234,0.07,0.469,0.078,0.699,0.152c25.812,5.672,49.117,30.207,66.094,65.801C335.149,124.369,336.336,126.994,337.488,129.686z
		 M361.278,267.08c-0.562,21.906-3.199,42.934-7.438,62.598c-1.762,8.801-4,17.359-6.558,25.602l-1.442,4.558
		c-7.52-1.918-15.199-3.519-23.122-4.878c-17.671-3.039-36.304-4.879-55.578-5.438v-82.446h91.484L361.278,267.08z M328.82,442.806
		c12.402-14.523,23.223-32.754,31.898-53.847c9.809,3.203,18.906,6.938,27.504,10.938c1.703,0.816,3.504,1.527,5.168,2.386
		c-15.175,14.313-32.73,26.11-51.843,35.062C337.359,439.263,333.172,441.19,328.82,442.806z M373.758,349.439
		c2.164-8.48,4.082-17.359,5.762-26.402c2.958-17.746,4.879-36.453,5.36-55.961h67.062l4.375,0.012
		c-0.161,2.625-0.317,5.168-0.559,7.71c-1.039,11.52-3.039,22.641-6.078,33.442v0.16c-7.52,28.161-21.039,53.918-39.122,75.68
		C398,377.279,384,371.279,368.879,366.4C370.641,360.881,372.32,355.197,373.758,349.439z M456.301,244.935h-71.422
		c-0.402-15.988-1.762-31.5-4-46.297c-1.039-8-2.481-15.918-4.078-23.602c-2.242-10.156-4.879-20-7.84-29.359
		C384,140.721,398,134.798,410.481,128.08c7.121,8.398,13.359,17.438,18.878,26.957c3.84,6.402,7.199,12.961,10.16,19.844
		c9.294,20.91,15.043,43.793,16.566,67.73C456.133,243.389,456.266,244.154,456.301,244.935z M125.57,408.08
		c-2.344-2.039-4.77-3.942-7.027-6.11c10.062-4.949,21-9.34,32.738-13.25c6.945,16.945,15.355,31.965,24.777,44.816
		c2.325,3.226,4.672,6.406,7.125,9.387C161.918,434.705,142.578,422.717,125.57,408.08z M56.238,274.721
		c-0.238-2.469-0.394-5.016-0.555-7.645h71.52c0.48,19.508,2.398,38.215,5.515,55.961c1.52,9.043,3.36,17.922,5.602,26.402
		c1.438,5.758,3.039,11.442,4.801,16.879C128,371.119,114,377.037,101.442,383.838c-18-21.758-31.52-47.359-39.122-75.438v-0.16
		C59.359,297.439,57.282,286.24,56.238,274.721z M135.359,175.037c-1.602,7.684-3.039,15.602-4.238,23.602
		c-2.16,14.797-3.519,30.309-3.918,46.297H58.438l-2.754-0.004c1.282-24.789,7.2-48.461,16.875-70.05
		c2.961-6.883,6.321-13.442,10.16-19.844c5.52-9.438,11.762-18.398,18.801-26.797c12.559,6.719,26.481,12.641,41.52,17.52
		C140.078,155.119,137.519,164.881,135.359,175.037z M118.531,109.955c18.629-17.574,40.691-31.645,65.07-40.996
		c-12.641,14.558-23.523,32.961-32.32,54.238c-9.934-3.242-19.157-6.972-27.898-11.015
		C121.793,111.42,120.074,110.752,118.531,109.955z M198.238,353.518c-8,1.121-15.918,2.562-23.52,4.242
		c-2.878,0.64-5.679,1.277-8.48,2l-1.438-4.563c-2.562-8.16-4.722-16.718-6.562-25.519c-4.234-19.668-6.875-40.691-7.438-62.602
		h93.785H245v82.446C228.855,349.924,213.187,351.283,198.238,353.518z M150.722,244.935c0.398-13.914,1.598-27.586,3.598-40.695
		c1.039-8,2.481-15.762,4.238-23.442c2.16-9.918,4.723-19.441,7.68-28.48c2.801,0.718,5.602,1.359,8.48,2
		c7.602,1.602,15.52,3.039,23.52,4.242c14.949,2.238,30.617,3.515,46.762,3.918v82.457h-92.754H150.722z M174.668,382.236
		c1.91-0.48,3.82-0.957,5.813-1.355c7.679-1.762,15.441-3.121,23.441-4.242c13.266-1.996,27.012-3.195,41.078-3.598v83.191
		c-0.226-0.07-0.453-0.078-0.68-0.152c-26.038-5.855-49.542-30.57-66.418-66.554C176.793,387.146,175.715,384.717,174.668,382.236z
		 M245,137.134v1.825c-14.066-0.402-27.813-1.602-41.078-3.602c-8-1.039-15.762-2.477-23.441-4.238
		c-1.754-0.348-3.489-0.77-5.188-1.191c-0.242-0.074-0.48-0.106-0.722-0.188c17.117-39.91,41.996-67.582,69.75-73.742
		c0.227-0.074,0.454-0.082,0.68-0.148V137.134z"/>
</g>
</svg>
