<?xml version="1.0" encoding="UTF-8"?>
<svg id="_レイヤー_2" data-name="レイヤー 2" xmlns="http://www.w3.org/2000/svg" viewBox="0 0 39 39">
  <defs>
    <style>
      .cls-1 {
        fill: #fff;
        stroke-width: 0px;
      }
    </style>
  </defs>
  <g id="_レイヤー_1-2" data-name="レイヤー 1">
    <g>
      <polygon class="cls-1" points="11.08 20.88 10.27 24.4 11.76 25.88 15.28 25.08 14.69 21.47 11.08 20.88"/>
      <polygon class="cls-1" points="24.49 7.16 18.98 12.67 12.55 19.1 13.96 19.34 16.42 19.74 17.05 23.61 19.42 21.25 23.49 17.18 29 11.67 26.74 9.41 24.49 7.16"/>
      <path class="cls-1" d="m19.5,0C8.73,0,0,8.73,0,19.5s8.73,19.5,19.5,19.5,19.5-8.73,19.5-19.5S30.27,0,19.5,0Zm8.9,29.88h0v2.61H10.6v-2.62h17.8Zm3.14-17.95l-6.65,6.65-8.21,8.21-8.75,2c-.34.08-.64-.23-.56-.56l2-8.75,8.21-8.21,6.65-6.65c.14-.14.38-.14.52,0l3.4,3.4,3.4,3.4c.14.14.14.38,0,.52Z"/>
    </g>
  </g>
</svg>